<svg width="93" height="93" viewBox="0 0 93 93" fill="none" xmlns="http://www.w3.org/2000/svg">
<path d="M81.979 59.8728L81.4388 58.3764C80.6847 56.2897 78.6728 55.1209 76.1595 55.3341C76.0965 55.3465 76.0464 55.3465 75.9834 55.3588V23.2686C75.9834 23.2562 75.971 23.2439 75.971 23.2179C75.971 23.0924 75.9463 22.9663 75.8956 22.8408C75.8833 22.8038 75.8833 22.7778 75.8709 22.7531C75.8586 22.7407 75.8586 22.716 75.8462 22.7024L72.0752 15.1597C71.862 14.7319 71.4342 14.468 70.9571 14.468H37.0163C36.6009 14.468 36.1991 14.6812 35.9723 15.0336L30.944 22.5763C30.9069 22.6133 30.8933 22.664 30.8686 22.7147C30.8562 22.7518 30.8315 22.7778 30.8179 22.8155C30.7672 22.954 30.7425 23.1041 30.7301 23.2432V23.2679V47.678C30.5416 47.7027 30.3531 47.7287 30.1646 47.7658L25.0356 48.9222V44.6363C25.0356 43.2536 23.9051 42.1219 22.5212 42.1219H13.1316C11.7489 42.1219 10.6172 43.2524 10.6172 44.6363V76.0609C10.6172 77.4436 11.749 78.5753 13.1316 78.5753H22.5212C23.9039 78.5753 25.0356 77.4435 25.0356 76.0609V72.7807L45.8144 76.5394C46.77 76.7155 47.7374 76.8033 48.7053 76.8033C50.7289 76.8033 52.7279 76.4262 54.6124 75.6728L79.149 65.9555C81.6277 64.9746 82.8726 62.3107 81.9801 59.8721L81.979 59.8728ZM22.5231 76.0621H13.1335L13.1329 44.6375H22.5225L22.5231 76.0621ZM59.6425 16.984H70.1762L72.6906 22.0123H59.6425V16.984ZM49.5852 16.984H57.1279V22.0123H49.5852V16.984ZM49.5852 24.5253H57.1279V39.6095L54.1116 37.3473C53.886 37.1835 53.6221 37.0957 53.3575 37.0957C53.0936 37.0957 52.8297 37.1835 52.6035 37.3473L49.5872 39.6095L49.5878 24.5253H49.5852ZM37.6942 16.984H47.0715V22.0123H34.3379L37.6942 16.984ZM33.2446 24.5253H47.0715V42.1239C47.0715 42.6011 47.3354 43.0412 47.7632 43.2421C48.1909 43.4553 48.7058 43.4182 49.0834 43.129L53.357 39.9241L57.6306 43.129C57.8575 43.2928 58.1201 43.3805 58.3847 43.3805C58.5732 43.3805 58.7741 43.3435 58.9503 43.2421C59.378 43.0412 59.6419 42.6011 59.6419 42.1239L59.6413 24.5253H73.4689V55.6736C72.8403 55.7614 72.1993 55.8622 71.583 55.9753C70.3135 56.1761 68.9932 56.403 67.7112 56.5285C64.2547 56.8808 61.4517 57.018 58.8741 56.9439C56.398 56.8685 53.9089 56.6422 51.4457 56.2905C51.5465 55.4227 51.421 54.5438 51.0303 53.739C50.4141 52.4695 49.2452 51.5139 47.8378 51.1245L35.9215 47.8936C35.0536 47.6544 34.1488 47.5289 33.2438 47.4919L33.2446 24.5253ZM78.2205 63.6184L53.6956 73.3357C51.3449 74.2653 48.7811 74.5298 46.2672 74.0644L25.0374 70.231L25.0367 51.5007L30.7184 50.2188C32.2148 49.8794 33.7854 49.9172 35.2682 50.3195L47.1722 53.5504C47.8886 53.7512 48.4665 54.216 48.7688 54.8323C49.045 55.4102 49.0574 56.0512 48.8058 56.6421C48.4041 57.5977 47.3477 58.188 46.2666 58.1125L35.9344 55.9751C35.2551 55.8366 34.5895 56.2767 34.4516 56.9554C34.3132 57.6347 34.7403 58.3003 35.4196 58.4382L45.8271 60.588C45.8642 60.6003 45.9149 60.6127 45.9526 60.6127C46.1288 60.625 46.292 60.6374 46.4558 60.6374C48.0523 60.6374 49.5351 59.8956 50.4784 58.6884C53.2308 59.1038 56.0216 59.3665 58.7993 59.4549C61.4892 59.5303 64.4055 59.3918 67.9757 59.0271C69.333 58.8887 70.6909 58.6625 71.9983 58.4492C73.4317 58.21 74.9144 57.9597 76.3719 57.833C77.0129 57.7823 78.5588 57.8083 79.0742 59.241L79.6144 60.7238C80.0428 61.8712 79.4278 63.1407 78.2207 63.618L78.2205 63.6184Z" fill="#7166DD"/>
<path d="M68.4392 45.8938H60.8972C59.5145 45.8938 58.3828 47.0256 58.3828 48.4082V50.9226C58.3828 52.3053 59.5146 53.437 60.8972 53.437H68.4399C69.8226 53.437 70.9543 52.3052 70.9543 50.9226V48.4082C70.9537 47.0255 69.8219 45.8938 68.4392 45.8938ZM68.4392 50.9221H60.8972V48.4077H68.4399L68.4392 50.9221Z" fill="#7166DD"/>
</svg>
