<svg width="93" height="93" viewBox="0 0 93 93" fill="none" xmlns="http://www.w3.org/2000/svg">
<path d="M21.7437 77.2088H54.7946C54.6513 78.3537 53.7929 79.784 54.9378 81.2147C55.6529 82.0731 56.941 82.5023 58.0853 81.9299L62.3778 79.9267L66.813 81.9299C67.9578 82.3591 69.1021 82.0731 69.9605 81.2147C70.3897 80.6423 70.6756 79.7839 70.5329 79.0688L68.6729 70.198C73.8238 67.9088 77.4004 62.6147 77.4004 56.6053C77.4004 49.3086 72.1063 43.2997 65.2388 42.011L65.2393 16.8292C65.2393 13.3951 62.521 10.6768 59.0869 10.6768H21.8869C18.4528 10.6768 15.7344 13.3951 15.7344 16.8292V71.1984C15.7344 74.4892 18.4528 77.2075 21.7435 77.2075L21.7437 77.2088ZM65.8111 71.1997L67.5279 79.2122L62.9495 77.209C62.5203 77.0657 62.0911 77.0657 61.8046 77.209L57.3694 79.2122L59.2294 71.1997C60.2311 71.3429 61.5186 71.6289 62.8062 71.4857C63.6651 71.4857 64.81 71.4857 65.811 71.1997H65.8111ZM74.3959 56.7488C74.3959 63.3304 69.1018 68.7672 62.5207 68.7672C55.9391 68.7672 50.5023 63.4731 50.5023 56.7488C50.5023 50.1672 55.9391 44.7304 62.5207 44.7304C69.1018 44.7304 74.3959 50.1672 74.3959 56.7488ZM18.5959 16.8306C18.5959 14.9706 20.0268 13.5397 21.7434 13.5397H58.9434C60.8034 13.5397 62.2343 14.9706 62.2343 16.8306V41.8688C46.496 42.0121 41.9178 63.9019 56.5111 70.3414L55.5095 74.4906H21.7438C19.8838 74.4906 18.4529 73.0597 18.4529 71.1997V16.8306H18.5959Z" fill="#7166DD"/>
<path d="M53.9375 56.7488C53.9375 61.4704 57.8007 65.3336 62.5223 65.3336C67.2439 65.3336 71.1072 61.4704 71.1072 56.7488C71.1072 52.0272 67.2439 48.1639 62.5223 48.1639C57.8007 48.1639 53.9375 52.0272 53.9375 56.7488ZM68.1027 56.7488C68.1027 59.8963 65.5276 62.472 62.3795 62.472C59.232 62.472 56.6563 59.8968 56.6563 56.7488C56.6563 53.6013 59.2315 51.0256 62.3795 51.0256C65.527 51.0256 68.1027 53.6013 68.1027 56.7488V56.7488Z" fill="#7166DD"/>
<path d="M24.8918 23.5545H53.5066C54.365 23.5545 54.9375 22.9821 54.9375 22.1236C54.9375 21.2652 54.365 20.6927 53.5066 20.6927H24.8918C24.0334 20.6927 23.4609 21.2652 23.4609 22.1236C23.4615 22.982 24.1766 23.5545 24.8918 23.5545Z" fill="#7166DD"/>
<path d="M24.8918 32.4253H53.5066C54.365 32.4253 54.9375 31.8529 54.9375 30.9945C54.9375 30.1361 54.365 29.5636 53.5066 29.5636H24.8918C24.0334 29.5636 23.4609 30.136 23.4609 30.9945C23.4615 31.8528 24.1766 32.4253 24.8918 32.4253Z" fill="#7166DD"/>
<path d="M24.8918 41.4397H53.5066C54.365 41.4397 54.9375 40.8673 54.9375 40.0089C54.9375 39.1505 54.365 38.578 53.5066 38.578H24.8918C24.0334 38.578 23.4609 39.1504 23.4609 40.0089C23.4615 40.8672 24.1766 41.4397 24.8918 41.4397Z" fill="#7166DD"/>
</svg>
