<svg width="51" height="51" viewBox="0 0 51 51" fill="none" xmlns="http://www.w3.org/2000/svg">
<path d="M18.7511 42.1265V39.4064C19.0485 39.5547 19.3958 39.7527 19.7427 39.9011C20.9328 40.3958 22.2713 40.6427 23.6596 40.6427H37.9892C39.9723 40.6427 41.5592 39.06 41.5592 37.1313C41.5592 36.4883 41.361 35.8949 41.0632 35.3509C42.402 34.8562 43.3936 33.5706 43.3936 32.0375C43.3936 31.2461 43.1456 30.5045 42.6995 29.9111C43.691 29.2681 44.3357 28.18 44.3357 26.9437C44.3357 26.1523 44.0877 25.4107 43.6416 24.8173C44.6331 24.1743 45.2778 23.0862 45.2778 21.8498C45.2778 19.9211 43.691 18.3384 41.7078 18.3384H31.5432C32.4854 14.8767 32.4356 12.2059 31.2952 10.2772C30.3037 8.54612 28.7666 8.15084 28.4194 8.05184C28.122 7.95283 27.1798 7.75516 26.2377 8.44752C25.2461 9.13987 24.7501 10.5246 24.7501 12.5522C24.7501 15.2723 20.5353 17.9924 18.2049 19.1297C18.0562 19.0804 17.9074 19.0307 17.7587 19.0307H6.70252C6.15708 19.0307 5.71094 19.4757 5.71094 20.0197V39.1586C5.71094 41.3347 7.49594 43.1151 9.67769 43.1151H17.7599C18.3049 43.1154 18.7511 42.6704 18.7511 42.1264L18.7511 42.1265ZM26.7835 12.6021C26.7835 10.8217 27.2297 10.2777 27.4282 10.1294C27.6264 9.98103 27.9242 10.0304 27.9242 10.0304C27.9736 10.0304 28.0234 10.0797 28.0729 10.0797C28.0729 10.0797 29.0151 10.2774 29.6597 11.3654C30.3044 12.4534 30.8001 14.7282 29.3125 19.0802C29.2132 19.3769 29.263 19.7233 29.4612 19.9703C29.6594 20.2176 29.9572 20.3659 30.2546 20.3659H41.758C42.6503 20.3659 43.3448 21.0583 43.3448 21.8989C43.3448 22.7396 42.6507 23.4319 41.758 23.4319H38.3366L37.3945 23.4326C36.849 23.4326 36.4029 23.8776 36.4029 24.4216C36.4029 24.9656 36.849 25.4106 37.3945 25.4106H40.8158C41.7081 25.4106 42.4026 26.103 42.4026 26.9436C42.4026 27.7843 41.7085 28.4766 40.8158 28.4766H36.8989C36.3535 28.4766 35.9073 28.9217 35.9073 29.4656C35.9073 30.0097 36.3535 30.4546 36.8989 30.4546H37.8411L39.8737 30.455C40.766 30.455 41.4606 31.1473 41.4606 31.988C41.4606 32.8287 40.7664 33.521 39.8737 33.521H36.4524C35.9069 33.521 35.4608 33.966 35.4608 34.51C35.4608 35.054 35.907 35.499 36.4524 35.499H38.0392C38.9315 35.499 39.6261 36.1913 39.6261 37.032C39.6261 37.8727 38.9319 38.565 38.0392 38.565H32.7835L23.6601 38.5654C22.5198 38.5654 21.429 38.3677 20.4868 37.972C19.2967 37.4773 18.9 37.0323 18.8011 36.8346C18.8011 36.8346 18.8011 36.7853 18.7516 36.7853L18.7513 21.1082C20.5857 20.2179 26.7837 16.9538 26.7837 12.602L26.7835 12.6021ZM16.7677 41.1374H9.67708C8.58625 41.1374 7.69393 40.2474 7.69393 39.1594V21.0096H16.7677V41.1374Z" fill="white"/>
</svg>
