<svg width="1680" height="171" viewBox="0 0 1680 171" fill="none" xmlns="http://www.w3.org/2000/svg">
<path d="M356.995 104.108V101.798C356.988 96.0481 355.179 90.4503 351.833 85.8187C348.486 81.187 343.775 77.7629 338.385 76.0444C338.692 75.5199 338.886 74.9351 338.956 74.3286L339.004 73.8766H339.004C339.055 73.4003 339.238 72.949 339.534 72.576L339.813 72.2223C340.419 71.4475 340.749 70.4866 340.749 69.4966C340.749 68.5061 340.419 67.5451 339.813 66.7709L339.534 66.4185V66.4179C339.238 66.0449 339.055 65.5936 339.004 65.1166L338.956 64.6654H338.956C338.847 63.6813 338.412 62.7646 337.725 62.0649C337.037 61.3652 336.136 60.9229 335.17 60.8118L334.727 60.763V60.7624C334.259 60.711 333.815 60.5242 333.449 60.2238L333.101 59.9388C332.341 59.3225 331.397 58.9868 330.425 58.9868C329.452 58.9868 328.508 59.3225 327.747 59.9388L327.399 60.2238H327.4C327.033 60.5242 326.589 60.711 326.122 60.7624L325.678 60.8112V60.8118C324.712 60.9229 323.811 61.3652 323.124 62.0649C322.436 62.7646 322.002 63.6813 321.892 64.6654L321.844 65.1166C321.794 65.593 321.61 66.0449 321.315 66.4179L321.035 66.7716C320.429 67.5458 320.1 68.5068 320.1 69.4966C320.1 70.4871 320.429 71.4475 321.035 72.2223L321.315 72.5767V72.576C321.61 72.949 321.794 73.4009 321.844 73.8773L321.892 74.3285C321.963 74.9519 322.167 75.5527 322.489 76.0881C317.129 77.8265 312.451 81.2532 309.128 85.8739C305.806 90.4953 304.012 96.0712 304.005 101.798V104.108C303.191 104.462 302.496 105.052 302.008 105.804C301.52 106.555 301.259 107.437 301.258 108.338V115.271C301.259 116.003 301.545 116.705 302.054 117.222C302.562 117.74 303.251 118.031 303.97 118.031H357.03C357.749 118.031 358.438 117.74 358.947 117.222C359.455 116.705 359.741 116.003 359.742 115.271V108.338C359.741 107.437 359.48 106.555 358.992 105.804C358.504 105.052 357.809 104.462 356.995 104.108L356.995 104.108ZM312.114 85.0478L316.276 88.6369V88.6376C316.613 88.9277 317.107 88.9277 317.445 88.6376L323.787 83.1676L330.125 88.6369C330.462 88.9277 330.956 88.9277 331.294 88.6376L337.639 83.1676L343.988 88.6376C344.326 88.9277 344.82 88.9277 345.156 88.6376L349.07 85.266L349.07 85.2654C350.991 87.4968 352.51 90.0562 353.555 92.8262L351.955 91.448V91.4473C351.617 91.1572 351.123 91.1572 350.787 91.4473L344.442 96.9167L338.103 91.448C337.766 91.1572 337.271 91.1572 336.934 91.4474L330.592 96.9167L324.252 91.4474C324.078 91.3004 323.857 91.2252 323.631 91.2368L323.607 91.2342L323.575 91.2381L323.575 91.2374C323.351 91.2265 323.131 91.3016 322.959 91.4474L316.61 96.9167L310.26 91.4474C309.922 91.1572 309.429 91.1572 309.091 91.4474L307.42 92.8879C308.5 90.0036 310.091 87.3459 312.114 85.0478H312.114ZM330.5 76.6653C336.991 76.6621 343.22 79.2704 347.831 83.9218L344.572 86.7296L338.222 81.2597L338.222 81.259C337.885 80.9689 337.391 80.9689 337.054 81.259L330.71 86.729L324.371 81.2597C324.034 80.9689 323.539 80.9689 323.202 81.259L316.859 86.729L313.374 83.7215C317.964 79.1932 324.107 76.6627 330.499 76.6651L330.5 76.6653ZM306.456 96.1196C306.468 96.1099 306.484 96.108 306.495 96.0977L309.676 93.3559L316.025 98.8253C316.362 99.1161 316.857 99.1161 317.193 98.8253L323.604 93.302L330.007 98.8253H330.008C330.345 99.1154 330.839 99.1154 331.177 98.8253L337.519 93.3559L343.857 98.8246H343.857C344.194 99.116 344.689 99.116 345.025 98.8252L351.37 93.3559L354.535 96.081C354.967 97.9548 355.186 99.8729 355.187 101.798V103.737H305.812V101.798C305.814 99.8864 306.029 97.981 306.456 96.1194L306.456 96.1196ZM323.691 74.1312L323.643 73.6799H323.642C323.555 72.8537 323.236 72.0699 322.724 71.4229L322.445 71.0692H322.444C322.095 70.623 321.905 70.069 321.905 69.4984C321.905 68.927 322.095 68.373 322.444 67.9269L322.724 67.5732C323.236 66.9261 323.555 66.1429 323.642 65.3168L323.69 64.8655L323.691 64.8649C323.754 64.2974 324.004 63.7691 324.401 63.3653C324.797 62.9615 325.316 62.7067 325.874 62.6425L326.317 62.5937C327.128 62.5045 327.898 62.1803 328.534 61.659L328.881 61.3746C329.32 61.0183 329.864 60.8245 330.424 60.8245C330.986 60.8245 331.53 61.0183 331.968 61.374L332.316 61.659C332.951 62.1796 333.72 62.5045 334.532 62.5937L334.975 62.6425H334.976C335.533 62.7067 336.052 62.9615 336.449 63.3653C336.846 63.7691 337.096 64.2974 337.159 64.8649L337.207 65.3162V65.3168C337.294 66.143 337.614 66.9262 338.126 67.5738L338.404 67.9262C338.754 68.373 338.945 68.927 338.945 69.4977C338.945 70.0684 338.754 70.6224 338.404 71.0692L338.125 71.4229C337.613 72.07 337.294 72.8532 337.207 73.6793L337.159 74.1312C337.1 74.6569 336.879 75.1493 336.527 75.5383C332.521 74.5786 328.35 74.5883 324.349 75.5672C323.982 75.1744 323.75 74.6698 323.69 74.1312L323.691 74.1312ZM357.933 115.271C357.932 115.779 357.528 116.191 357.029 116.191H303.969C303.47 116.191 303.066 115.779 303.066 115.271V108.338C303.066 107.607 303.352 106.905 303.861 106.387C304.369 105.869 305.058 105.579 305.777 105.577H355.221C355.394 105.579 355.566 105.596 355.736 105.631C355.758 105.64 355.783 105.639 355.806 105.647H355.807C356.409 105.782 356.947 106.123 357.334 106.612C357.721 107.102 357.932 107.711 357.932 108.338L357.933 115.271Z" fill="#8579FC"/>
<path d="M166.245 91.8002H142.768C141.505 91.8022 140.295 92.305 139.404 93.1982C138.511 94.092 138.009 95.3038 138.008 96.5674V107.096C138.009 108.36 138.511 109.572 139.404 110.465C140.296 111.359 141.505 111.862 142.768 111.863H166.245C167.507 111.862 168.716 111.359 169.609 110.465C170.501 109.572 171.003 108.36 171.005 107.096V96.5674C171.003 95.3038 170.501 94.092 169.609 93.1982C168.716 92.305 167.507 91.8022 166.245 91.8002ZM142.768 93.7069L166.245 93.7076C167.002 93.7082 167.728 94.0095 168.264 94.5462C168.799 95.0823 169.1 95.8092 169.101 96.5674V97.8902L139.912 97.8909V96.5674C139.913 95.8092 140.214 95.0823 140.749 94.5462C141.285 94.0095 142.01 93.7082 142.768 93.7076L142.768 93.7069ZM166.245 109.955L142.768 109.956C142.01 109.955 141.284 109.654 140.749 109.117C140.214 108.581 139.912 107.854 139.912 107.096V99.7978H163.479V102.521C163.479 103.048 163.905 103.475 164.431 103.475C164.956 103.475 165.383 103.048 165.383 102.521V99.7978H169.101V107.096C169.1 107.854 168.799 108.581 168.263 109.117C167.727 109.654 167.002 109.955 166.245 109.956L166.245 109.955Z" fill="#8579FC"/>
<path d="M184.029 91.0731H180.699V66.3208C180.696 63.5401 179.591 60.8745 177.628 58.9085C175.665 56.9418 173.003 55.8358 170.227 55.8333H165.291C164.28 52.7812 162.03 50.2978 159.095 48.9956C156.159 47.6941 152.811 47.6941 149.876 48.9956C146.94 50.2978 144.69 52.7812 143.68 55.8333H138.783C136.007 55.8359 133.345 56.9419 131.382 58.9085C129.419 60.8745 128.315 63.5401 128.311 66.3208V91.0731H124.981V91.0738C124.224 91.0744 123.498 91.3757 122.962 91.9124C122.427 92.4485 122.126 93.1754 122.125 93.9336V105.986C122.127 107.25 122.628 108.462 123.521 109.355C124.413 110.249 125.623 110.752 126.885 110.753H128.311V111.126C128.313 112.896 129.016 114.593 130.266 115.844C131.515 117.095 133.209 117.798 134.975 117.801H174.036C175.803 117.799 177.496 117.095 178.746 115.844C179.995 114.593 180.698 112.896 180.7 111.126V110.753H182.126H182.126C183.388 110.752 184.598 110.249 185.49 109.355C186.382 108.462 186.884 107.25 186.886 105.986V93.9336C186.885 93.1754 186.584 92.4485 186.048 91.9124C185.513 91.3757 184.787 91.0744 184.03 91.0738L184.029 91.0731ZM184.029 92.9799C184.555 92.9805 184.98 93.4068 184.981 93.9329V94.9797H180.766V92.9799L184.029 92.9799ZM154.485 49.9263C156.368 49.9309 158.206 50.4949 159.769 51.5464C161.331 52.5979 162.547 54.0897 163.263 55.8335H160.909C160.058 54.2939 158.685 53.1114 157.038 52.4995C155.391 51.8883 153.58 51.8883 151.933 52.4995C150.285 53.1114 148.912 54.2939 148.062 55.8335H145.707C146.425 54.0918 147.642 52.6013 149.204 51.5505C150.766 50.4997 152.604 49.9343 154.485 49.9264L154.485 49.9263ZM158.609 55.8334H150.362C151.398 54.6356 152.903 53.948 154.486 53.948C156.068 53.948 157.572 54.6357 158.609 55.8334ZM130.215 66.3218V66.3211C130.218 64.0466 131.122 61.8651 132.728 60.2563C134.334 58.6475 136.512 57.7429 138.783 57.7404H170.226C172.498 57.743 174.676 58.6475 176.282 60.2563C177.888 61.8651 178.792 64.0466 178.795 66.3211V75.422C178.793 76.3624 178.419 77.2635 177.756 77.9287C177.092 78.5938 176.192 78.9676 175.252 78.9689H170.831V75.7852C170.831 75.5325 170.731 75.2897 170.552 75.1109C170.374 74.9319 170.132 74.8315 169.879 74.8315H164.831C164.578 74.8315 164.336 74.932 164.158 75.1109C163.979 75.2898 163.879 75.5325 163.879 75.7852V78.9689H145.13V75.7852C145.13 75.5325 145.03 75.2897 144.851 75.1109C144.672 74.9319 144.43 74.8315 144.178 74.8315H139.129C138.876 74.8315 138.634 74.932 138.456 75.1109C138.277 75.2898 138.177 75.5325 138.177 75.7852V78.9689H132.857C132.156 78.9676 131.484 78.6889 130.989 78.1928C130.493 77.696 130.214 77.0236 130.214 76.3213V66.3212L130.215 66.3218ZM165.785 76.7389H168.929V83.1058H165.785V76.7389ZM140.084 76.7389H143.229V83.1058H140.084V76.7389ZM124.982 92.9802H128.246V94.9801H124.03V93.9332C124.031 93.4072 124.457 92.9808 124.982 92.9802L124.982 92.9802ZM126.886 108.846C126.129 108.846 125.403 108.544 124.868 108.008C124.332 107.471 124.032 106.744 124.03 105.986V96.887H128.246V108.846L126.886 108.846ZM174.036 115.894L134.977 115.894C133.715 115.892 132.505 115.389 131.612 114.496C130.72 113.602 130.218 112.391 130.217 111.126V80.0114C130.985 80.5714 131.91 80.8733 132.86 80.8753H138.18V84.059V84.0583C138.18 84.3117 138.28 84.5538 138.459 84.7327C138.637 84.9116 138.879 85.012 139.132 85.012H144.181C144.433 85.012 144.675 84.9116 144.854 84.7327C145.033 84.5538 145.133 84.3117 145.133 84.0583V80.8753H163.882V84.059V84.0583C163.882 84.3117 163.982 84.5538 164.161 84.7327C164.339 84.9116 164.581 85.0121 164.834 85.0121H169.882C170.135 85.0121 170.377 84.9116 170.555 84.7327C170.734 84.5538 170.834 84.3117 170.834 84.0583V80.8753H175.255C176.556 80.8753 177.813 80.4071 178.798 79.5558V95.8868C178.797 95.9028 178.788 95.9167 178.788 95.9327C178.788 95.9493 178.797 95.9626 178.798 95.9786V111.126C178.796 112.39 178.294 113.602 177.402 114.495C176.509 115.389 175.299 115.892 174.038 115.893L174.036 115.894ZM182.126 108.846H180.767V96.887H184.983V105.986H184.982C184.982 106.744 184.68 107.471 184.145 108.008C183.61 108.544 182.884 108.846 182.126 108.846L182.126 108.846Z" fill="#8579FC"/>
<path d="M285.384 76.6438L277.767 58.2619C275.453 52.6901 270.944 48.3752 265.35 46.3798L256.265 43.1479C255.926 43.0386 255.557 43.0976 255.266 43.306C254.976 43.5152 254.796 43.8503 254.783 44.2129C254.783 46.4001 250.047 48.1132 244.001 48.1132C237.956 48.1132 233.22 46.4002 233.22 44.2129C233.206 43.8503 233.027 43.5152 232.736 43.306C232.446 43.0976 232.076 43.0386 231.737 43.1479L222.654 46.3798C217.059 48.3752 212.549 52.6901 210.235 58.2619L202.618 76.6438C202.498 76.9348 202.503 77.2644 202.631 77.5522C202.761 77.8401 203.002 78.0588 203.297 78.1555L207.288 79.469V112.39C207.289 113.286 207.638 114.146 208.259 114.78C208.88 115.415 209.721 115.771 210.6 115.772H218.875H218.874C219.099 116.804 219.661 117.726 220.467 118.389C221.274 119.051 222.277 119.413 223.312 119.415H264.69C265.725 119.413 266.729 119.051 267.535 118.389C268.341 117.726 268.904 116.804 269.128 115.772H277.027C277.905 115.771 278.748 115.415 279.368 114.78C279.989 114.146 280.339 113.286 280.339 112.39V79.5918L284.706 78.1548C285.001 78.0573 285.242 77.8387 285.371 77.5508C285.5 77.2629 285.504 76.9334 285.384 76.6424L285.384 76.6438ZM235.448 49.0427C238.205 49.9755 241.097 50.4238 244.001 50.3695C248.201 50.3695 252.422 49.5641 254.867 47.8353V47.8345C254.163 51.2535 251.956 54.1503 248.885 55.6864C245.813 57.2233 242.219 57.2272 239.143 55.699C236.067 54.17 233.853 51.2795 233.142 47.862C233.859 48.3528 234.634 48.7492 235.448 49.0426V49.0427ZM218.76 113.517H210.599H210.6C209.99 113.516 209.496 113.012 209.495 112.39V80.1961L218.759 83.2447L218.76 113.517ZM218.76 80.8762L205.121 76.3875L206.745 72.4706L218.759 76.1304L218.76 80.8762ZM267.034 114.768C267.032 116.089 265.984 117.159 264.69 117.161H223.311C222.018 117.159 220.969 116.089 220.967 114.768V113.663H267.034L267.034 114.768ZM268.138 66.5904L268.137 66.5896C267.845 66.5896 267.564 66.7083 267.357 66.9199C267.15 67.1315 267.033 67.4186 267.034 67.7174V111.407H220.968V67.7174C220.968 67.0945 220.474 66.5896 219.864 66.5896C219.254 66.5896 218.76 67.0945 218.76 67.7174V73.7769L207.61 70.3815L212.268 59.1413H212.269C214.339 54.1563 218.374 50.2952 223.379 48.5106L230.708 45.9033L230.708 45.9025C230.841 50.6611 233.403 55.0012 237.461 57.3417C241.52 59.6822 246.481 59.6824 250.54 57.3417C254.598 55.001 257.161 50.6609 257.293 45.9031L264.622 48.5104C269.628 50.2951 273.662 54.1561 275.733 59.1411L280.404 70.4113L269.242 73.8107V67.7175C269.242 67.4186 269.126 67.1315 268.919 66.9199C268.711 66.7084 268.43 66.5896 268.138 66.5896L268.138 66.5904ZM278.131 112.392C278.13 113.014 277.637 113.518 277.027 113.519H269.242V83.2456L278.131 80.3206L278.131 112.392ZM269.242 80.8762V76.165L281.27 72.5014L282.88 76.3877L269.242 80.8762Z" fill="#8579FC"/>
<path d="M260.635 66.5922H249.83C249.537 66.5922 249.256 66.7109 249.049 66.9225C248.843 67.1341 248.727 67.4212 248.727 67.72V78.42C248.727 79.3166 249.076 80.1763 249.698 80.811C250.318 81.445 251.16 81.8013 252.038 81.8029H258.427C259.305 81.8013 260.147 81.445 260.768 80.811C261.389 80.1763 261.738 79.3166 261.739 78.42V67.72C261.739 67.4211 261.623 67.1341 261.416 66.9225C261.209 66.7109 260.928 66.5922 260.635 66.5922H260.635ZM259.531 78.4191V78.4199C259.531 79.042 259.037 79.547 258.427 79.547H252.038C251.429 79.547 250.935 79.042 250.934 78.4199V68.8479H259.532L259.531 78.4191Z" fill="#8579FC"/>
<path d="M90.6374 14.2814H39.303C38.6047 14.2814 38.0291 14.8348 37.9925 15.539L32.744 118.114C32.7138 118.694 33.0607 119.227 33.6006 119.428C36.5219 120.516 40.7573 121.14 45.2207 121.14C49.2483 121.14 53.0519 120.642 55.9292 119.74C56.4198 119.585 56.7767 119.156 56.8426 118.641L57.7358 111.567C57.8355 111.352 57.8996 111.119 57.8721 110.866C57.8675 110.827 57.8456 110.797 57.8383 110.759L64.9701 54.2835L72.102 110.761C72.0947 110.798 72.0728 110.829 72.0682 110.867C72.0398 111.119 72.1039 111.351 72.2036 111.565L73.0968 118.641C73.1618 119.157 73.5187 119.586 74.0102 119.74C76.8884 120.644 80.692 121.14 84.7196 121.14C89.1839 121.14 93.4184 120.517 96.3397 119.429C96.8788 119.228 97.2265 118.696 97.1963 118.115L91.9488 15.5395C91.9122 14.8353 91.3365 14.282 90.6382 14.282L90.6374 14.2814ZM90.479 38.1972C87.3483 37.8761 84.8873 35.225 84.8873 31.942L84.6997 24.8365H89.7954L90.479 38.1972ZM89.66 22.1834H71.6345V16.9341H89.3917L89.66 22.1834ZM61.7917 22.1834V16.9341H69.0105V22.1834H61.7917ZM59.1679 16.935V22.1843L40.2796 22.1834L40.5477 16.9341L59.1679 16.935ZM40.1441 24.8362H45.2399L45.0522 31.9778C45.0522 35.2266 42.5913 37.8757 39.4605 38.1969L40.1441 24.8362ZM45.2206 118.486C41.5086 118.486 38.0044 118.038 35.4163 117.244L35.6688 112.315C38.9542 112.689 42.5529 112.897 46.1998 112.897C49.2363 112.897 52.1731 112.759 54.9726 112.501L54.3493 117.437C51.8216 118.115 48.6203 118.486 45.2204 118.486L45.2206 118.486ZM64.9702 42.4817C64.3095 42.4817 63.7521 42.9776 63.6688 43.6402L55.3133 109.804C52.4222 110.091 49.3683 110.244 46.2 110.244C42.5906 110.244 39.0351 110.037 35.8055 109.662L39.3244 40.8905C43.9717 40.6333 47.6781 36.7422 47.6772 32.0138L47.8657 24.8379H82.0761L82.2647 31.9794C82.2647 36.7413 85.9701 40.634 90.6174 40.8903L94.1364 109.662C90.9068 110.037 87.3512 110.244 83.7418 110.244C80.5726 110.244 77.5194 110.091 74.6276 109.804L66.273 43.6399C66.1879 42.9774 65.6306 42.4814 64.9707 42.4814L64.9702 42.4817ZM84.7189 118.486C81.3189 118.486 78.1176 118.115 75.5909 117.437L74.9676 112.502C77.7671 112.76 80.7039 112.897 83.7404 112.897C87.3864 112.897 90.985 112.689 94.2704 112.316L94.523 117.244C91.9348 118.038 88.4306 118.486 84.7186 118.486L84.7189 118.486Z" fill="#8579FC"/>
<path d="M448.491 49.7855C448.245 47.8762 446.639 46.4357 444.754 46.4357L394.436 46.4365C392.551 46.4365 390.945 47.8761 390.7 49.7864L382.088 116.838C382.081 116.889 382.078 116.941 382.078 116.992C382.078 120.477 393.932 120.854 399.028 120.854C404.07 120.854 415.73 120.485 415.974 117.1L419.595 89.6628L422.24 109.7C422.164 109.821 422.105 109.954 422.076 110.103C421.996 110.517 422.155 110.908 422.435 111.176L423.217 117.1C423.46 120.485 435.119 120.854 440.163 120.854C445.259 120.854 457.112 120.478 457.112 116.992C457.112 116.941 457.109 116.889 457.103 116.838L448.491 49.7855ZM446.206 50.0927L446.701 53.9458H441.557V48.7903H444.755C445.487 48.7911 446.111 49.3512 446.206 50.0927L446.206 50.0927ZM399.807 53.9458V48.7903H404.461V53.9458H399.807ZM406.766 48.7909H411.42V53.9465H406.766V48.7909ZM413.724 48.7909H418.378V53.9465H413.724V48.7909ZM420.682 48.7909H425.337V53.9465H420.682V48.7909ZM427.641 48.7909H432.295V53.9465H427.641V48.7909ZM434.6 48.7909H439.254V53.9465H434.6V48.7909ZM394.438 48.7909H397.504V53.9465H392.491L392.986 50.0933C393.081 49.3509 393.706 48.7908 394.438 48.7908L394.438 48.7909ZM399.03 118.498C390.443 118.498 385.525 117.41 384.428 116.73L385.068 111.746C389.41 112.506 394.462 112.91 399.784 112.91C405.052 112.91 410.048 112.518 414.353 111.776L413.706 116.681C412.773 117.356 407.828 118.498 399.03 118.498H399.03ZM419.597 79.6763C419.02 79.6763 418.533 80.1124 418.455 80.6963L414.677 109.322C410.384 110.116 405.143 110.554 399.784 110.554C394.552 110.554 389.602 110.156 385.368 109.409L392.189 56.2995H411.421V69.0031C411.421 69.6536 411.937 70.1808 412.573 70.1808C413.21 70.1808 413.726 69.6536 413.726 69.0031L413.725 56.3004H425.337V66.2758C425.337 71.3781 429.399 75.5294 434.392 75.5294C435.028 75.5294 435.544 75.0022 435.544 74.3518C435.544 73.7013 435.028 73.1741 434.392 73.1741C430.67 73.1741 427.641 70.0789 427.641 66.2751V56.2997H447.004L453.819 109.361C449.527 110.14 444.476 110.556 439.131 110.556C433.891 110.556 428.762 110.136 424.523 109.375L420.739 80.6974C420.662 80.1135 420.174 79.6774 419.598 79.6774L419.597 79.6763ZM440.164 118.498C431.366 118.498 426.42 117.356 425.488 116.681L424.847 111.826C429.087 112.536 433.98 112.91 439.131 112.91C444.567 112.91 449.718 112.488 454.12 111.697L454.766 116.73C453.67 117.41 448.752 118.498 440.164 118.498L440.164 118.498Z" fill="#8579FC"/>
<path d="M550.101 47.4821C547.989 46.079 545.516 44.8205 543.037 43.8459C543.399 42.9564 543.605 42.0322 543.605 41.0758C543.605 40.8689 543.589 39.3352 543.576 38.2395C543.561 37.0126 542.57 36.0136 541.368 36.0136L499.663 36.0144C498.458 36.0144 497.468 37.0141 497.455 38.2411C497.442 39.336 497.426 40.8706 497.426 41.0766C497.426 42.0456 497.64 42.9815 498.011 43.8822C495.563 44.852 493.124 46.0962 491.038 47.4821C486.55 50.4631 483.755 55.5251 483.559 61.0552L483.182 101.595C483.146 102.586 483.539 103.521 484.247 104.192V107.19C484.247 109.056 485.733 110.573 487.559 110.573H495.443C495.665 111.562 496.198 112.454 496.963 113.107V116.258C496.963 118.745 498.943 120.768 501.378 120.768H539.799C542.235 120.768 544.215 118.744 544.215 116.258V113.056C544.95 112.407 545.463 111.537 545.679 110.573H553.563C555.39 110.573 556.875 109.055 556.875 107.19V104.211C556.888 104.2 556.904 104.196 556.916 104.184C557.612 103.514 557.992 102.57 557.957 101.625L557.579 61.0246C557.384 55.5259 554.587 50.4632 550.101 47.4822L550.101 47.4821ZM523.532 51.1489C525.179 47.8597 530.655 38.8863 541.376 38.8476C541.387 39.83 541.398 40.9068 541.398 41.0766C541.397 46.1033 533.48 50.4088 523.532 51.1487L523.532 51.1489ZM500.62 44.1071V44.1047C500.589 44.0111 500.53 43.9388 500.478 43.8601C499.941 42.9706 499.634 42.0378 499.634 41.0759C499.634 40.906 499.645 39.8292 499.657 38.8477C510.472 38.9106 515.846 47.8408 517.465 51.145C509.61 50.5551 503.028 47.7456 500.62 44.1072L500.62 44.1071ZM519.948 51.2583C519.294 49.745 515.534 41.7894 507.585 38.2695H533.401C525.45 41.7908 521.689 49.7489 521.036 51.2599C520.861 51.2622 520.691 51.2733 520.515 51.2733C520.325 51.2733 520.138 51.2615 519.948 51.2583L519.948 51.2583ZM485.765 61.1071C485.935 56.34 488.356 51.9535 492.24 49.373C494.297 48.0068 496.718 46.7847 499.137 45.8548C501.752 49.3392 507.174 51.9841 513.975 53.0312V64.5869C513.975 65.2098 514.469 65.7148 515.08 65.7148C515.689 65.7148 516.184 65.2098 516.184 64.5869V53.3096C517.585 53.4481 519.029 53.5283 520.515 53.5283C521.985 53.5283 523.413 53.4488 524.8 53.3136V63.5619C524.8 68.4487 528.692 72.4246 533.478 72.4246C534.088 72.4246 534.582 71.9196 534.582 71.2967C534.582 70.6737 534.088 70.1688 533.478 70.1688C529.91 70.1688 527.008 67.2043 527.008 63.5613V53.0375C533.854 51.9922 539.305 49.3298 541.916 45.8211C544.363 46.7547 546.818 47.9902 548.898 49.3731C552.784 51.9536 555.204 56.3402 555.373 61.0774L555.751 101.68C555.76 101.92 555.671 102.142 555.542 102.338H545.802L545.802 64.7479C545.802 64.125 545.309 63.62 544.698 63.62C544.088 63.62 543.594 64.125 543.594 64.7479V109.542C543.594 110.251 543.27 110.906 542.751 111.358C542.61 111.292 542.457 111.25 542.292 111.25H498.235C497.791 110.805 497.529 110.191 497.529 109.542V64.7479C497.529 64.125 497.035 63.62 496.424 63.62C495.815 63.62 495.32 64.125 495.32 64.7479V102.338H486.013C485.886 102.338 485.768 102.372 485.654 102.412C485.488 102.201 485.378 101.948 485.388 101.649L485.765 61.1071ZM486.454 107.192V104.594H495.32V108.32H487.558C486.95 108.319 486.455 107.814 486.455 107.192L486.454 107.192ZM539.799 118.516H501.378C500.161 118.516 499.17 117.504 499.17 116.261V113.506H542.008V116.261C542.008 117.504 541.016 118.516 539.8 118.516H539.799ZM553.563 108.319H545.801V104.593H554.667V107.191C554.667 107.813 554.172 108.319 553.563 108.319L553.563 108.319Z" fill="#8579FC"/>
<path d="M907.995 104.108V101.798C907.988 96.0481 906.179 90.4503 902.833 85.8187C899.486 81.187 894.775 77.7629 889.385 76.0444C889.692 75.5199 889.886 74.9351 889.956 74.3286L890.004 73.8766H890.004C890.055 73.4003 890.238 72.949 890.534 72.576L890.813 72.2223C891.419 71.4475 891.749 70.4866 891.749 69.4966C891.749 68.5061 891.419 67.5451 890.813 66.7709L890.534 66.4185V66.4179C890.238 66.0449 890.055 65.5936 890.004 65.1166L889.956 64.6654H889.956C889.847 63.6813 889.412 62.7646 888.725 62.0649C888.037 61.3652 887.136 60.9229 886.17 60.8118L885.727 60.763V60.7624C885.259 60.711 884.815 60.5242 884.449 60.2238L884.101 59.9388C883.341 59.3225 882.397 58.9868 881.425 58.9868C880.452 58.9868 879.508 59.3225 878.747 59.9388L878.399 60.2238H878.4C878.033 60.5242 877.589 60.711 877.122 60.7624L876.678 60.8112V60.8118C875.712 60.9229 874.811 61.3652 874.124 62.0649C873.436 62.7646 873.002 63.6813 872.892 64.6654L872.844 65.1166C872.794 65.593 872.61 66.0449 872.315 66.4179L872.035 66.7716C871.429 67.5458 871.1 68.5068 871.1 69.4966C871.1 70.4871 871.429 71.4475 872.035 72.2223L872.315 72.5767V72.576C872.61 72.949 872.794 73.4009 872.844 73.8773L872.892 74.3285C872.963 74.9519 873.167 75.5527 873.489 76.0881C868.129 77.8265 863.451 81.2532 860.128 85.8739C856.806 90.4953 855.012 96.0712 855.005 101.798V104.108C854.191 104.462 853.496 105.052 853.008 105.804C852.52 106.555 852.259 107.437 852.258 108.338V115.271C852.259 116.003 852.545 116.705 853.054 117.222C853.562 117.74 854.251 118.031 854.97 118.031H908.03C908.749 118.031 909.438 117.74 909.947 117.222C910.455 116.705 910.741 116.003 910.742 115.271V108.338C910.741 107.437 910.48 106.555 909.992 105.804C909.504 105.052 908.809 104.462 907.995 104.108L907.995 104.108ZM863.114 85.0478L867.276 88.6369V88.6376C867.613 88.9277 868.107 88.9277 868.445 88.6376L874.787 83.1676L881.125 88.6369C881.462 88.9277 881.956 88.9277 882.294 88.6376L888.639 83.1676L894.988 88.6376C895.326 88.9277 895.82 88.9277 896.156 88.6376L900.07 85.266L900.07 85.2654C901.991 87.4968 903.51 90.0562 904.555 92.8262L902.955 91.448V91.4473C902.617 91.1572 902.123 91.1572 901.787 91.4473L895.442 96.9167L889.103 91.448C888.766 91.1572 888.271 91.1572 887.934 91.4474L881.592 96.9167L875.252 91.4474C875.078 91.3004 874.857 91.2252 874.631 91.2368L874.607 91.2342L874.575 91.2381L874.575 91.2374C874.351 91.2265 874.131 91.3016 873.959 91.4474L867.61 96.9167L861.26 91.4474C860.922 91.1572 860.429 91.1572 860.091 91.4474L858.42 92.8879C859.5 90.0036 861.091 87.3459 863.114 85.0478H863.114ZM881.5 76.6653C887.991 76.6621 894.22 79.2704 898.831 83.9218L895.572 86.7296L889.222 81.2597L889.222 81.259C888.885 80.9689 888.391 80.9689 888.054 81.259L881.71 86.729L875.371 81.2597C875.034 80.9689 874.539 80.9689 874.202 81.259L867.859 86.729L864.374 83.7215C868.964 79.1932 875.107 76.6627 881.499 76.6651L881.5 76.6653ZM857.456 96.1196C857.468 96.1099 857.484 96.108 857.495 96.0977L860.676 93.3559L867.025 98.8253C867.362 99.1161 867.857 99.1161 868.193 98.8253L874.604 93.302L881.007 98.8253H881.008C881.345 99.1154 881.839 99.1154 882.177 98.8253L888.519 93.3559L894.857 98.8246H894.857C895.194 99.116 895.689 99.116 896.025 98.8252L902.37 93.3559L905.535 96.081C905.967 97.9548 906.186 99.8729 906.187 101.798V103.737H856.812V101.798C856.814 99.8864 857.029 97.981 857.456 96.1194L857.456 96.1196ZM874.691 74.1312L874.643 73.6799H874.642C874.555 72.8537 874.236 72.0699 873.724 71.4229L873.445 71.0692H873.444C873.095 70.623 872.905 70.069 872.905 69.4984C872.905 68.927 873.095 68.373 873.444 67.9269L873.724 67.5732C874.236 66.9261 874.555 66.1429 874.642 65.3168L874.69 64.8655L874.691 64.8649C874.754 64.2974 875.004 63.7691 875.401 63.3653C875.797 62.9615 876.316 62.7067 876.874 62.6425L877.317 62.5937C878.128 62.5045 878.898 62.1803 879.534 61.659L879.881 61.3746C880.32 61.0183 880.864 60.8245 881.424 60.8245C881.986 60.8245 882.53 61.0183 882.968 61.374L883.316 61.659C883.951 62.1796 884.72 62.5045 885.532 62.5937L885.975 62.6425H885.976C886.533 62.7067 887.052 62.9615 887.449 63.3653C887.846 63.7691 888.096 64.2974 888.159 64.8649L888.207 65.3162V65.3168C888.294 66.143 888.614 66.9262 889.126 67.5738L889.404 67.9262C889.754 68.373 889.945 68.927 889.945 69.4977C889.945 70.0684 889.754 70.6224 889.404 71.0692L889.125 71.4229C888.613 72.07 888.294 72.8532 888.207 73.6793L888.159 74.1312C888.1 74.6569 887.879 75.1493 887.527 75.5383C883.521 74.5786 879.35 74.5883 875.349 75.5672C874.982 75.1744 874.75 74.6698 874.69 74.1312L874.691 74.1312ZM908.933 115.271C908.932 115.779 908.528 116.191 908.029 116.191H854.969C854.47 116.191 854.066 115.779 854.066 115.271V108.338C854.066 107.607 854.352 106.905 854.861 106.387C855.369 105.869 856.058 105.579 856.777 105.577H906.221C906.394 105.579 906.566 105.596 906.736 105.631C906.758 105.64 906.783 105.639 906.806 105.647H906.807C907.409 105.782 907.947 106.123 908.334 106.612C908.721 107.102 908.932 107.711 908.932 108.338L908.933 115.271Z" fill="#8579FC"/>
<path d="M717.245 91.8002H693.768C692.505 91.8022 691.295 92.305 690.404 93.1982C689.511 94.092 689.009 95.3038 689.008 96.5674V107.096C689.009 108.36 689.511 109.572 690.404 110.465C691.296 111.359 692.505 111.862 693.768 111.863H717.245C718.507 111.862 719.716 111.359 720.609 110.465C721.501 109.572 722.003 108.36 722.005 107.096V96.5674C722.003 95.3038 721.501 94.092 720.609 93.1982C719.716 92.305 718.507 91.8022 717.245 91.8002ZM693.768 93.7069L717.245 93.7076C718.002 93.7082 718.728 94.0095 719.264 94.5462C719.799 95.0823 720.1 95.8092 720.101 96.5674V97.8902L690.912 97.8909V96.5674C690.913 95.8092 691.214 95.0823 691.749 94.5462C692.285 94.0095 693.01 93.7082 693.768 93.7076L693.768 93.7069ZM717.245 109.955L693.768 109.956C693.01 109.955 692.284 109.654 691.749 109.117C691.214 108.581 690.912 107.854 690.912 107.096V99.7978H714.479V102.521C714.479 103.048 714.905 103.475 715.431 103.475C715.956 103.475 716.383 103.048 716.383 102.521V99.7978H720.101V107.096C720.1 107.854 719.799 108.581 719.263 109.117C718.727 109.654 718.002 109.955 717.245 109.956L717.245 109.955Z" fill="#8579FC"/>
<path d="M735.029 91.0731H731.699V66.3208C731.696 63.5401 730.591 60.8745 728.628 58.9085C726.665 56.9418 724.003 55.8358 721.227 55.8333H716.291C715.28 52.7812 713.03 50.2978 710.095 48.9956C707.159 47.6941 703.811 47.6941 700.876 48.9956C697.94 50.2978 695.69 52.7812 694.68 55.8333H689.783C687.007 55.8359 684.345 56.9419 682.382 58.9085C680.419 60.8745 679.315 63.5401 679.311 66.3208V91.0731H675.981V91.0738C675.224 91.0744 674.498 91.3757 673.962 91.9124C673.427 92.4485 673.126 93.1754 673.125 93.9336V105.986C673.127 107.25 673.628 108.462 674.521 109.355C675.413 110.249 676.623 110.752 677.885 110.753H679.311V111.126C679.313 112.896 680.016 114.593 681.266 115.844C682.515 117.095 684.209 117.798 685.975 117.801H725.036C726.803 117.799 728.496 117.095 729.746 115.844C730.995 114.593 731.698 112.896 731.7 111.126V110.753H733.126H733.126C734.388 110.752 735.598 110.249 736.49 109.355C737.382 108.462 737.884 107.25 737.886 105.986V93.9336C737.885 93.1754 737.584 92.4485 737.048 91.9124C736.513 91.3757 735.787 91.0744 735.03 91.0738L735.029 91.0731ZM735.029 92.9799C735.555 92.9805 735.98 93.4068 735.981 93.9329V94.9797H731.766V92.9799L735.029 92.9799ZM705.485 49.9263C707.368 49.9309 709.206 50.4949 710.769 51.5464C712.331 52.5979 713.547 54.0897 714.263 55.8335H711.909C711.058 54.2939 709.685 53.1114 708.038 52.4995C706.391 51.8883 704.58 51.8883 702.933 52.4995C701.285 53.1114 699.912 54.2939 699.062 55.8335H696.707C697.425 54.0918 698.642 52.6013 700.204 51.5505C701.766 50.4997 703.604 49.9343 705.485 49.9264L705.485 49.9263ZM709.609 55.8334H701.362C702.398 54.6356 703.903 53.948 705.486 53.948C707.068 53.948 708.572 54.6357 709.609 55.8334ZM681.215 66.3218V66.3211C681.218 64.0466 682.122 61.8651 683.728 60.2563C685.334 58.6475 687.512 57.7429 689.783 57.7404H721.226C723.498 57.743 725.676 58.6475 727.282 60.2563C728.888 61.8651 729.792 64.0466 729.795 66.3211V75.422C729.793 76.3624 729.419 77.2635 728.756 77.9287C728.092 78.5938 727.192 78.9676 726.252 78.9689H721.831V75.7852C721.831 75.5325 721.731 75.2897 721.552 75.1109C721.374 74.9319 721.132 74.8315 720.879 74.8315H715.831C715.578 74.8315 715.336 74.932 715.158 75.1109C714.979 75.2898 714.879 75.5325 714.879 75.7852V78.9689H696.13V75.7852C696.13 75.5325 696.03 75.2897 695.851 75.1109C695.672 74.9319 695.43 74.8315 695.178 74.8315H690.129C689.876 74.8315 689.634 74.932 689.456 75.1109C689.277 75.2898 689.177 75.5325 689.177 75.7852V78.9689H683.857C683.156 78.9676 682.484 78.6889 681.989 78.1928C681.493 77.696 681.214 77.0236 681.214 76.3213V66.3212L681.215 66.3218ZM716.785 76.7389H719.929V83.1058H716.785V76.7389ZM691.084 76.7389H694.229V83.1058H691.084V76.7389ZM675.982 92.9802H679.246V94.9801H675.03V93.9332C675.031 93.4072 675.457 92.9808 675.982 92.9802L675.982 92.9802ZM677.886 108.846C677.129 108.846 676.403 108.544 675.868 108.008C675.332 107.471 675.032 106.744 675.03 105.986V96.887H679.246V108.846L677.886 108.846ZM725.036 115.894L685.977 115.894C684.715 115.892 683.505 115.389 682.612 114.496C681.72 113.602 681.218 112.391 681.217 111.126V80.0114C681.985 80.5714 682.91 80.8733 683.86 80.8753H689.18V84.059V84.0583C689.18 84.3117 689.28 84.5538 689.459 84.7327C689.637 84.9116 689.879 85.012 690.132 85.012H695.181C695.433 85.012 695.675 84.9116 695.854 84.7327C696.033 84.5538 696.133 84.3117 696.133 84.0583V80.8753H714.882V84.059V84.0583C714.882 84.3117 714.982 84.5538 715.161 84.7327C715.339 84.9116 715.581 85.0121 715.834 85.0121H720.882C721.135 85.0121 721.377 84.9116 721.555 84.7327C721.734 84.5538 721.834 84.3117 721.834 84.0583V80.8753H726.255C727.556 80.8753 728.813 80.4071 729.798 79.5558V95.8868C729.797 95.9028 729.788 95.9167 729.788 95.9327C729.788 95.9493 729.797 95.9626 729.798 95.9786V111.126C729.796 112.39 729.294 113.602 728.402 114.495C727.509 115.389 726.299 115.892 725.038 115.893L725.036 115.894ZM733.126 108.846H731.767V96.887H735.983V105.986H735.982C735.982 106.744 735.68 107.471 735.145 108.008C734.61 108.544 733.884 108.846 733.126 108.846L733.126 108.846Z" fill="#8579FC"/>
<path d="M836.384 76.6438L828.767 58.2619C826.453 52.6901 821.944 48.3752 816.35 46.3798L807.265 43.1479C806.926 43.0386 806.557 43.0976 806.266 43.306C805.976 43.5152 805.796 43.8503 805.783 44.2129C805.783 46.4001 801.047 48.1132 795.001 48.1132C788.956 48.1132 784.22 46.4002 784.22 44.2129C784.206 43.8503 784.027 43.5152 783.736 43.306C783.446 43.0976 783.076 43.0386 782.737 43.1479L773.654 46.3798C768.059 48.3752 763.549 52.6901 761.235 58.2619L753.618 76.6438C753.498 76.9348 753.503 77.2644 753.631 77.5522C753.761 77.8401 754.002 78.0588 754.297 78.1555L758.288 79.469V112.39C758.289 113.286 758.638 114.146 759.259 114.78C759.88 115.415 760.721 115.771 761.6 115.772H769.875H769.874C770.099 116.804 770.661 117.726 771.467 118.389C772.274 119.051 773.277 119.413 774.312 119.415H815.69C816.725 119.413 817.729 119.051 818.535 118.389C819.341 117.726 819.904 116.804 820.128 115.772H828.027C828.905 115.771 829.748 115.415 830.368 114.78C830.989 114.146 831.339 113.286 831.339 112.39V79.5918L835.706 78.1548C836.001 78.0573 836.242 77.8387 836.371 77.5508C836.5 77.2629 836.504 76.9334 836.384 76.6424L836.384 76.6438ZM786.448 49.0427C789.205 49.9755 792.097 50.4238 795.001 50.3695C799.201 50.3695 803.422 49.5641 805.867 47.8353V47.8345C805.163 51.2535 802.956 54.1503 799.885 55.6864C796.813 57.2233 793.219 57.2272 790.143 55.699C787.067 54.17 784.853 51.2795 784.142 47.862C784.859 48.3528 785.634 48.7492 786.448 49.0426V49.0427ZM769.76 113.517H761.599H761.6C760.99 113.516 760.496 113.012 760.495 112.39V80.1961L769.759 83.2447L769.76 113.517ZM769.76 80.8762L756.121 76.3875L757.745 72.4706L769.759 76.1304L769.76 80.8762ZM818.034 114.768C818.032 116.089 816.984 117.159 815.69 117.161H774.311C773.018 117.159 771.969 116.089 771.967 114.768V113.663H818.034L818.034 114.768ZM819.138 66.5904L819.137 66.5896C818.845 66.5896 818.564 66.7083 818.357 66.9199C818.15 67.1315 818.033 67.4186 818.034 67.7174V111.407H771.968V67.7174C771.968 67.0945 771.474 66.5896 770.864 66.5896C770.254 66.5896 769.76 67.0945 769.76 67.7174V73.7769L758.61 70.3815L763.268 59.1413H763.269C765.339 54.1563 769.374 50.2952 774.379 48.5106L781.708 45.9033L781.708 45.9025C781.841 50.6611 784.403 55.0012 788.461 57.3417C792.52 59.6822 797.481 59.6824 801.54 57.3417C805.598 55.001 808.161 50.6609 808.293 45.9031L815.622 48.5104C820.628 50.2951 824.662 54.1561 826.733 59.1411L831.404 70.4113L820.242 73.8107V67.7175C820.242 67.4186 820.126 67.1315 819.919 66.9199C819.711 66.7084 819.43 66.5896 819.138 66.5896L819.138 66.5904ZM829.131 112.392C829.13 113.014 828.637 113.518 828.027 113.519H820.242V83.2456L829.131 80.3206L829.131 112.392ZM820.242 80.8762V76.165L832.27 72.5014L833.88 76.3877L820.242 80.8762Z" fill="#8579FC"/>
<path d="M811.635 66.5922H800.83C800.537 66.5922 800.256 66.7109 800.049 66.9225C799.843 67.1341 799.727 67.4212 799.727 67.72V78.42C799.727 79.3166 800.076 80.1763 800.698 80.811C801.318 81.445 802.16 81.8013 803.038 81.8029H809.427C810.305 81.8013 811.147 81.445 811.768 80.811C812.389 80.1763 812.738 79.3166 812.739 78.42V67.72C812.739 67.4211 812.623 67.1341 812.416 66.9225C812.209 66.7109 811.928 66.5922 811.635 66.5922H811.635ZM810.531 78.4191V78.4199C810.531 79.042 810.037 79.547 809.427 79.547H803.038C802.429 79.547 801.935 79.042 801.934 78.4199V68.8479H810.532L810.531 78.4191Z" fill="#8579FC"/>
<path d="M641.637 14.2814H590.303C589.605 14.2814 589.029 14.8348 588.992 15.539L583.744 118.114C583.714 118.694 584.061 119.227 584.601 119.428C587.522 120.516 591.757 121.14 596.221 121.14C600.248 121.14 604.052 120.642 606.929 119.74C607.42 119.585 607.777 119.156 607.843 118.641L608.736 111.567C608.836 111.352 608.9 111.119 608.872 110.866C608.868 110.827 608.846 110.797 608.838 110.759L615.97 54.2835L623.102 110.761C623.095 110.798 623.073 110.829 623.068 110.867C623.04 111.119 623.104 111.351 623.204 111.565L624.097 118.641C624.162 119.157 624.519 119.586 625.01 119.74C627.888 120.644 631.692 121.14 635.72 121.14C640.184 121.14 644.418 120.517 647.34 119.429C647.879 119.228 648.227 118.696 648.196 118.115L642.949 15.5395C642.912 14.8353 642.337 14.282 641.638 14.282L641.637 14.2814ZM641.479 38.1972C638.348 37.8761 635.887 35.225 635.887 31.942L635.7 24.8365H640.795L641.479 38.1972ZM640.66 22.1834H622.634V16.9341H640.392L640.66 22.1834ZM612.792 22.1834V16.9341H620.01V22.1834H612.792ZM610.168 16.935V22.1843L591.28 22.1834L591.548 16.9341L610.168 16.935ZM591.144 24.8362H596.24L596.052 31.9778C596.052 35.2266 593.591 37.8757 590.461 38.1969L591.144 24.8362ZM596.221 118.486C592.509 118.486 589.004 118.038 586.416 117.244L586.669 112.315C589.954 112.689 593.553 112.897 597.2 112.897C600.236 112.897 603.173 112.759 605.973 112.501L605.349 117.437C602.822 118.115 599.62 118.486 596.22 118.486L596.221 118.486ZM615.97 42.4817C615.309 42.4817 614.752 42.9776 614.669 43.6402L606.313 109.804C603.422 110.091 600.368 110.244 597.2 110.244C593.591 110.244 590.035 110.037 586.805 109.662L590.324 40.8905C594.972 40.6333 598.678 36.7422 598.677 32.0138L598.866 24.8379H633.076L633.265 31.9794C633.265 36.7413 636.97 40.634 641.617 40.8903L645.136 109.662C641.907 110.037 638.351 110.244 634.742 110.244C631.573 110.244 628.519 110.091 625.628 109.804L617.273 43.6399C617.188 42.9774 616.631 42.4814 615.971 42.4814L615.97 42.4817ZM635.719 118.486C632.319 118.486 629.118 118.115 626.591 117.437L625.968 112.502C628.767 112.76 631.704 112.897 634.74 112.897C638.386 112.897 641.985 112.689 645.27 112.316L645.523 117.244C642.935 118.038 639.431 118.486 635.719 118.486L635.719 118.486Z" fill="#8579FC"/>
<path d="M999.491 49.7855C999.245 47.8762 997.639 46.4357 995.754 46.4357L945.436 46.4365C943.551 46.4365 941.945 47.8761 941.7 49.7864L933.088 116.838C933.081 116.889 933.078 116.941 933.078 116.992C933.078 120.477 944.932 120.854 950.028 120.854C955.07 120.854 966.73 120.485 966.974 117.1L970.595 89.6628L973.24 109.7C973.164 109.821 973.105 109.954 973.076 110.103C972.996 110.517 973.155 110.908 973.435 111.176L974.217 117.1C974.46 120.485 986.119 120.854 991.163 120.854C996.259 120.854 1008.11 120.478 1008.11 116.992C1008.11 116.941 1008.11 116.889 1008.1 116.838L999.491 49.7855ZM997.206 50.0927L997.701 53.9458H992.557V48.7903H995.755C996.487 48.7911 997.111 49.3512 997.206 50.0927L997.206 50.0927ZM950.807 53.9458V48.7903H955.461V53.9458H950.807ZM957.766 48.7909H962.42V53.9465H957.766V48.7909ZM964.724 48.7909H969.378V53.9465H964.724V48.7909ZM971.682 48.7909H976.337V53.9465H971.682V48.7909ZM978.641 48.7909H983.295V53.9465H978.641V48.7909ZM985.6 48.7909H990.254V53.9465H985.6V48.7909ZM945.438 48.7909H948.504V53.9465H943.491L943.986 50.0933C944.081 49.3509 944.706 48.7908 945.438 48.7908L945.438 48.7909ZM950.03 118.498C941.443 118.498 936.525 117.41 935.428 116.73L936.068 111.746C940.41 112.506 945.462 112.91 950.784 112.91C956.052 112.91 961.048 112.518 965.353 111.776L964.706 116.681C963.773 117.356 958.828 118.498 950.03 118.498H950.03ZM970.597 79.6763C970.02 79.6763 969.533 80.1124 969.455 80.6963L965.677 109.322C961.384 110.116 956.143 110.554 950.784 110.554C945.552 110.554 940.602 110.156 936.368 109.409L943.189 56.2995H962.421V69.0031C962.421 69.6536 962.937 70.1808 963.573 70.1808C964.21 70.1808 964.726 69.6536 964.726 69.0031L964.725 56.3004H976.337V66.2758C976.337 71.3781 980.399 75.5294 985.392 75.5294C986.028 75.5294 986.544 75.0022 986.544 74.3518C986.544 73.7013 986.028 73.1741 985.392 73.1741C981.67 73.1741 978.641 70.0789 978.641 66.2751V56.2997H998.004L1004.82 109.361C1000.53 110.14 995.476 110.556 990.131 110.556C984.891 110.556 979.762 110.136 975.523 109.375L971.739 80.6974C971.662 80.1135 971.174 79.6774 970.598 79.6774L970.597 79.6763ZM991.164 118.498C982.366 118.498 977.42 117.356 976.488 116.681L975.847 111.826C980.087 112.536 984.98 112.91 990.131 112.91C995.567 112.91 1000.72 112.488 1005.12 111.697L1005.77 116.73C1004.67 117.41 999.752 118.498 991.164 118.498L991.164 118.498Z" fill="#8579FC"/>
<path d="M1101.1 47.4821C1098.99 46.079 1096.52 44.8205 1094.04 43.8459C1094.4 42.9564 1094.61 42.0322 1094.61 41.0758C1094.61 40.8689 1094.59 39.3352 1094.58 38.2395C1094.56 37.0126 1093.57 36.0136 1092.37 36.0136L1050.66 36.0144C1049.46 36.0144 1048.47 37.0141 1048.45 38.2411C1048.44 39.336 1048.43 40.8706 1048.43 41.0766C1048.43 42.0456 1048.64 42.9815 1049.01 43.8822C1046.56 44.852 1044.12 46.0962 1042.04 47.4821C1037.55 50.4631 1034.76 55.5251 1034.56 61.0552L1034.18 101.595C1034.15 102.586 1034.54 103.521 1035.25 104.192V107.19C1035.25 109.056 1036.73 110.573 1038.56 110.573H1046.44C1046.67 111.562 1047.2 112.454 1047.96 113.107V116.258C1047.96 118.745 1049.94 120.768 1052.38 120.768H1090.8C1093.24 120.768 1095.22 118.744 1095.22 116.258V113.056C1095.95 112.407 1096.46 111.537 1096.68 110.573H1104.56C1106.39 110.573 1107.88 109.055 1107.88 107.19V104.211C1107.89 104.2 1107.9 104.196 1107.92 104.184C1108.61 103.514 1108.99 102.57 1108.96 101.625L1108.58 61.0246C1108.38 55.5259 1105.59 50.4632 1101.1 47.4822L1101.1 47.4821ZM1074.53 51.1489C1076.18 47.8597 1081.66 38.8863 1092.38 38.8476C1092.39 39.83 1092.4 40.9068 1092.4 41.0766C1092.4 46.1033 1084.48 50.4088 1074.53 51.1487L1074.53 51.1489ZM1051.62 44.1071V44.1047C1051.59 44.0111 1051.53 43.9388 1051.48 43.8601C1050.94 42.9706 1050.63 42.0378 1050.63 41.0759C1050.63 40.906 1050.65 39.8292 1050.66 38.8477C1061.47 38.9106 1066.85 47.8408 1068.47 51.145C1060.61 50.5551 1054.03 47.7456 1051.62 44.1072L1051.62 44.1071ZM1070.95 51.2583C1070.29 49.745 1066.53 41.7894 1058.58 38.2695H1084.4C1076.45 41.7908 1072.69 49.7489 1072.04 51.2599C1071.86 51.2622 1071.69 51.2733 1071.52 51.2733C1071.32 51.2733 1071.14 51.2615 1070.95 51.2583L1070.95 51.2583ZM1036.77 61.1071C1036.94 56.34 1039.36 51.9535 1043.24 49.373C1045.3 48.0068 1047.72 46.7847 1050.14 45.8548C1052.75 49.3392 1058.17 51.9841 1064.98 53.0312V64.5869C1064.98 65.2098 1065.47 65.7148 1066.08 65.7148C1066.69 65.7148 1067.18 65.2098 1067.18 64.5869V53.3096C1068.58 53.4481 1070.03 53.5283 1071.51 53.5283C1072.98 53.5283 1074.41 53.4488 1075.8 53.3136V63.5619C1075.8 68.4487 1079.69 72.4246 1084.48 72.4246C1085.09 72.4246 1085.58 71.9196 1085.58 71.2967C1085.58 70.6737 1085.09 70.1688 1084.48 70.1688C1080.91 70.1688 1078.01 67.2043 1078.01 63.5613V53.0375C1084.85 51.9922 1090.31 49.3298 1092.92 45.8211C1095.36 46.7547 1097.82 47.9902 1099.9 49.3731C1103.78 51.9536 1106.2 56.3402 1106.37 61.0774L1106.75 101.68C1106.76 101.92 1106.67 102.142 1106.54 102.338H1096.8L1096.8 64.7479C1096.8 64.125 1096.31 63.62 1095.7 63.62C1095.09 63.62 1094.59 64.125 1094.59 64.7479V109.542C1094.59 110.251 1094.27 110.906 1093.75 111.358C1093.61 111.292 1093.46 111.25 1093.29 111.25H1049.23C1048.79 110.805 1048.53 110.191 1048.53 109.542V64.7479C1048.53 64.125 1048.04 63.62 1047.42 63.62C1046.81 63.62 1046.32 64.125 1046.32 64.7479V102.338H1037.01C1036.89 102.338 1036.77 102.372 1036.65 102.412C1036.49 102.201 1036.38 101.948 1036.39 101.649L1036.77 61.1071ZM1037.45 107.192V104.594H1046.32V108.32H1038.56C1037.95 108.319 1037.45 107.814 1037.45 107.192L1037.45 107.192ZM1090.8 118.516H1052.38C1051.16 118.516 1050.17 117.504 1050.17 116.261V113.506H1093.01V116.261C1093.01 117.504 1092.02 118.516 1090.8 118.516H1090.8ZM1104.56 108.319H1096.8V104.593H1105.67V107.191C1105.67 107.813 1105.17 108.319 1104.56 108.319L1104.56 108.319Z" fill="#8579FC"/>
<path d="M1458.99 104.108V101.798C1458.99 96.0481 1457.18 90.4503 1453.83 85.8187C1450.49 81.187 1445.77 77.7629 1440.39 76.0444C1440.69 75.5199 1440.89 74.9351 1440.96 74.3286L1441 73.8766H1441C1441.05 73.4003 1441.24 72.949 1441.53 72.576L1441.81 72.2223C1442.42 71.4475 1442.75 70.4866 1442.75 69.4966C1442.75 68.5061 1442.42 67.5451 1441.81 66.7709L1441.53 66.4185V66.4179C1441.24 66.0449 1441.05 65.5936 1441 65.1166L1440.96 64.6654H1440.96C1440.85 63.6813 1440.41 62.7646 1439.72 62.0649C1439.04 61.3652 1438.14 60.9229 1437.17 60.8118L1436.73 60.763V60.7624C1436.26 60.711 1435.82 60.5242 1435.45 60.2238L1435.1 59.9388C1434.34 59.3225 1433.4 58.9868 1432.42 58.9868C1431.45 58.9868 1430.51 59.3225 1429.75 59.9388L1429.4 60.2238H1429.4C1429.03 60.5242 1428.59 60.711 1428.12 60.7624L1427.68 60.8112V60.8118C1426.71 60.9229 1425.81 61.3652 1425.12 62.0649C1424.44 62.7646 1424 63.6813 1423.89 64.6654L1423.84 65.1166C1423.79 65.593 1423.61 66.0449 1423.32 66.4179L1423.04 66.7716C1422.43 67.5458 1422.1 68.5068 1422.1 69.4966C1422.1 70.4871 1422.43 71.4475 1423.04 72.2223L1423.32 72.5767V72.576C1423.61 72.949 1423.79 73.4009 1423.84 73.8773L1423.89 74.3285C1423.96 74.9519 1424.17 75.5527 1424.49 76.0881C1419.13 77.8265 1414.45 81.2532 1411.13 85.8739C1407.81 90.4953 1406.01 96.0712 1406 101.798V104.108C1405.19 104.462 1404.5 105.052 1404.01 105.804C1403.52 106.555 1403.26 107.437 1403.26 108.338V115.271C1403.26 116.003 1403.54 116.705 1404.05 117.222C1404.56 117.74 1405.25 118.031 1405.97 118.031H1459.03C1459.75 118.031 1460.44 117.74 1460.95 117.222C1461.46 116.705 1461.74 116.003 1461.74 115.271V108.338C1461.74 107.437 1461.48 106.555 1460.99 105.804C1460.5 105.052 1459.81 104.462 1459 104.108L1458.99 104.108ZM1414.11 85.0478L1418.28 88.6369V88.6376C1418.61 88.9277 1419.11 88.9277 1419.44 88.6376L1425.79 83.1676L1432.13 88.6369C1432.46 88.9277 1432.96 88.9277 1433.29 88.6376L1439.64 83.1676L1445.99 88.6376C1446.33 88.9277 1446.82 88.9277 1447.16 88.6376L1451.07 85.266L1451.07 85.2654C1452.99 87.4968 1454.51 90.0562 1455.55 92.8262L1453.95 91.448V91.4473C1453.62 91.1572 1453.12 91.1572 1452.79 91.4473L1446.44 96.9167L1440.1 91.448C1439.77 91.1572 1439.27 91.1572 1438.93 91.4474L1432.59 96.9167L1426.25 91.4474C1426.08 91.3003 1425.86 91.2252 1425.63 91.2368L1425.61 91.2342L1425.57 91.2381L1425.58 91.2374C1425.35 91.2265 1425.13 91.3016 1424.96 91.4474L1418.61 96.9167L1412.26 91.4474C1411.92 91.1572 1411.43 91.1572 1411.09 91.4474L1409.42 92.8879C1410.5 90.0036 1412.09 87.3459 1414.11 85.0478H1414.11ZM1432.5 76.6653C1438.99 76.6621 1445.22 79.2704 1449.83 83.9218L1446.57 86.7296L1440.22 81.2597L1440.22 81.259C1439.88 80.9689 1439.39 80.9689 1439.05 81.259L1432.71 86.729L1426.37 81.2597C1426.03 80.9689 1425.54 80.9689 1425.2 81.259L1418.86 86.729L1415.37 83.7215C1419.96 79.1932 1426.11 76.6627 1432.5 76.6651L1432.5 76.6653ZM1408.46 96.1196C1408.47 96.1099 1408.48 96.108 1408.49 96.0977L1411.68 93.3559L1418.03 98.8253C1418.36 99.1161 1418.86 99.1161 1419.19 98.8253L1425.6 93.302L1432.01 98.8253H1432.01C1432.35 99.1154 1432.84 99.1154 1433.18 98.8253L1439.52 93.3559L1445.86 98.8246H1445.86C1446.19 99.116 1446.69 99.116 1447.03 98.8252L1453.37 93.3559L1456.54 96.081C1456.97 97.9547 1457.19 99.8729 1457.19 101.798V103.737H1407.81V101.798C1407.81 99.8864 1408.03 97.981 1408.46 96.1194L1408.46 96.1196ZM1425.69 74.1312L1425.64 73.6799H1425.64C1425.55 72.8537 1425.24 72.0699 1424.72 71.4229L1424.45 71.0692H1424.44C1424.1 70.623 1423.9 70.069 1423.9 69.4984C1423.9 68.927 1424.1 68.373 1424.44 67.9269L1424.72 67.5732C1425.24 66.9261 1425.55 66.1429 1425.64 65.3168L1425.69 64.8655L1425.69 64.8649C1425.75 64.2974 1426 63.7691 1426.4 63.3653C1426.8 62.9615 1427.32 62.7067 1427.87 62.6425L1428.32 62.5937C1429.13 62.5045 1429.9 62.1803 1430.53 61.659L1430.88 61.3746C1431.32 61.0183 1431.86 60.8245 1432.42 60.8245C1432.99 60.8245 1433.53 61.0183 1433.97 61.374L1434.32 61.659C1434.95 62.1796 1435.72 62.5045 1436.53 62.5937L1436.98 62.6425H1436.98C1437.53 62.7067 1438.05 62.9615 1438.45 63.3653C1438.85 63.7691 1439.1 64.2974 1439.16 64.8649L1439.21 65.3162V65.3168C1439.29 66.143 1439.61 66.9262 1440.13 67.5738L1440.4 67.9262C1440.75 68.373 1440.94 68.927 1440.94 69.4977C1440.94 70.0684 1440.75 70.6224 1440.4 71.0692L1440.12 71.4229C1439.61 72.07 1439.29 72.8532 1439.21 73.6793L1439.16 74.1312C1439.1 74.6569 1438.88 75.1493 1438.53 75.5383C1434.52 74.5786 1430.35 74.5883 1426.35 75.5672C1425.98 75.1744 1425.75 74.6698 1425.69 74.1312L1425.69 74.1312ZM1459.93 115.271C1459.93 115.779 1459.53 116.191 1459.03 116.191H1405.97C1405.47 116.191 1405.07 115.779 1405.07 115.271V108.338C1405.07 107.607 1405.35 106.905 1405.86 106.387C1406.37 105.869 1407.06 105.579 1407.78 105.577H1457.22C1457.39 105.579 1457.57 105.596 1457.74 105.631C1457.76 105.64 1457.78 105.639 1457.81 105.647H1457.81C1458.41 105.782 1458.95 106.123 1459.33 106.612C1459.72 107.102 1459.93 107.711 1459.93 108.338L1459.93 115.271Z" fill="#8579FC"/>
<path d="M1268.24 91.8002H1244.77C1243.51 91.8022 1242.3 92.305 1241.4 93.1982C1240.51 94.092 1240.01 95.3038 1240.01 96.5674V107.096C1240.01 108.36 1240.51 109.572 1241.4 110.465C1242.3 111.359 1243.51 111.862 1244.77 111.863H1268.24C1269.51 111.862 1270.72 111.359 1271.61 110.465C1272.5 109.572 1273 108.36 1273 107.096V96.5674C1273 95.3038 1272.5 94.092 1271.61 93.1982C1270.72 92.305 1269.51 91.8022 1268.24 91.8002V91.8002ZM1244.77 93.7069L1268.24 93.7076C1269 93.7082 1269.73 94.0095 1270.26 94.5462C1270.8 95.0823 1271.1 95.8092 1271.1 96.5674V97.8902L1241.91 97.8909V96.5674C1241.91 95.8092 1242.21 95.0823 1242.75 94.5462C1243.28 94.0095 1244.01 93.7082 1244.77 93.7076L1244.77 93.7069ZM1268.24 109.955L1244.77 109.956C1244.01 109.955 1243.28 109.654 1242.75 109.117C1242.21 108.581 1241.91 107.854 1241.91 107.096V99.7978H1265.48V102.521C1265.48 103.048 1265.91 103.475 1266.43 103.475C1266.96 103.475 1267.38 103.048 1267.38 102.521V99.7978H1271.1V107.096C1271.1 107.854 1270.8 108.581 1270.26 109.117C1269.73 109.654 1269 109.955 1268.24 109.956L1268.24 109.955Z" fill="#8579FC"/>
<path d="M1286.03 91.0731H1282.7V66.3208C1282.7 63.5401 1281.59 60.8745 1279.63 58.9085C1277.66 56.9418 1275 55.8358 1272.23 55.8333H1267.29C1266.28 52.7812 1264.03 50.2978 1261.1 48.9956C1258.16 47.6941 1254.81 47.6941 1251.88 48.9956C1248.94 50.2978 1246.69 52.7812 1245.68 55.8333H1240.78C1238.01 55.8359 1235.34 56.9419 1233.38 58.9085C1231.42 60.8745 1230.31 63.5401 1230.31 66.3208V91.0731H1226.98V91.0738C1226.22 91.0744 1225.5 91.3757 1224.96 91.9124C1224.43 92.4485 1224.13 93.1754 1224.12 93.9336V105.986C1224.13 107.25 1224.63 108.462 1225.52 109.355C1226.41 110.249 1227.62 110.752 1228.88 110.753H1230.31V111.126C1230.31 112.896 1231.02 114.593 1232.27 115.844C1233.51 117.095 1235.21 117.798 1236.98 117.801H1276.04C1277.8 117.799 1279.5 117.095 1280.75 115.844C1281.99 114.593 1282.7 112.896 1282.7 111.126V110.753H1284.13H1284.13C1285.39 110.752 1286.6 110.249 1287.49 109.355C1288.38 108.462 1288.88 107.25 1288.89 105.986V93.9336C1288.89 93.1754 1288.58 92.4485 1288.05 91.9124C1287.51 91.3757 1286.79 91.0744 1286.03 91.0738L1286.03 91.0731ZM1286.03 92.9799C1286.55 92.9805 1286.98 93.4068 1286.98 93.9329V94.9797H1282.77V92.9799L1286.03 92.9799ZM1256.48 49.9263C1258.37 49.9309 1260.21 50.4949 1261.77 51.5464C1263.33 52.5979 1264.55 54.0897 1265.26 55.8335H1262.91C1262.06 54.2939 1260.69 53.1114 1259.04 52.4995C1257.39 51.8883 1255.58 51.8883 1253.93 52.4995C1252.29 53.1114 1250.91 54.2939 1250.06 55.8335H1247.71C1248.43 54.0918 1249.64 52.6013 1251.2 51.5505C1252.77 50.4997 1254.6 49.9343 1256.48 49.9264L1256.48 49.9263ZM1260.61 55.8334H1252.36C1253.4 54.6356 1254.9 53.948 1256.49 53.948C1258.07 53.948 1259.57 54.6357 1260.61 55.8334ZM1232.22 66.3218V66.3211C1232.22 64.0466 1233.12 61.8651 1234.73 60.2563C1236.33 58.6475 1238.51 57.7429 1240.78 57.7404H1272.23C1274.5 57.743 1276.68 58.6475 1278.28 60.2563C1279.89 61.8651 1280.79 64.0466 1280.79 66.3211V75.422C1280.79 76.3624 1280.42 77.2635 1279.76 77.9287C1279.09 78.5938 1278.19 78.9676 1277.25 78.9689H1272.83V75.7852C1272.83 75.5325 1272.73 75.2897 1272.55 75.1109C1272.37 74.9319 1272.13 74.8315 1271.88 74.8315H1266.83C1266.58 74.8315 1266.34 74.932 1266.16 75.1109C1265.98 75.2898 1265.88 75.5325 1265.88 75.7852V78.9689H1247.13V75.7852C1247.13 75.5325 1247.03 75.2897 1246.85 75.1109C1246.67 74.9319 1246.43 74.8315 1246.18 74.8315H1241.13C1240.88 74.8315 1240.63 74.932 1240.46 75.1109C1240.28 75.2898 1240.18 75.5325 1240.18 75.7852V78.9689H1234.86C1234.16 78.9676 1233.48 78.6889 1232.99 78.1928C1232.49 77.696 1232.21 77.0236 1232.21 76.3213V66.3212L1232.22 66.3218ZM1267.78 76.7389H1270.93V83.1058H1267.78V76.7389ZM1242.08 76.7389H1245.23V83.1058H1242.08V76.7389ZM1226.98 92.9802H1230.25V94.9801H1226.03V93.9332C1226.03 93.4072 1226.46 92.9808 1226.98 92.9802L1226.98 92.9802ZM1228.89 108.846C1228.13 108.846 1227.4 108.544 1226.87 108.008C1226.33 107.471 1226.03 106.744 1226.03 105.986V96.887H1230.25V108.846L1228.89 108.846ZM1276.04 115.894L1236.98 115.894C1235.71 115.892 1234.5 115.389 1233.61 114.496C1232.72 113.602 1232.22 112.391 1232.22 111.126V80.0114C1232.98 80.5714 1233.91 80.8733 1234.86 80.8753H1240.18V84.059V84.0583C1240.18 84.3117 1240.28 84.5538 1240.46 84.7327C1240.64 84.9116 1240.88 85.012 1241.13 85.012H1246.18C1246.43 85.012 1246.68 84.9116 1246.85 84.7327C1247.03 84.5538 1247.13 84.3117 1247.13 84.0583V80.8753H1265.88V84.059V84.0583C1265.88 84.3117 1265.98 84.5538 1266.16 84.7327C1266.34 84.9116 1266.58 85.012 1266.83 85.012H1271.88C1272.13 85.012 1272.38 84.9116 1272.56 84.7327C1272.73 84.5538 1272.83 84.3117 1272.83 84.0583V80.8753H1277.26C1278.56 80.8753 1279.81 80.4071 1280.8 79.5558V95.8868C1280.8 95.9028 1280.79 95.9167 1280.79 95.9327C1280.79 95.9493 1280.8 95.9626 1280.8 95.9786V111.126C1280.8 112.39 1280.29 113.602 1279.4 114.495C1278.51 115.389 1277.3 115.892 1276.04 115.893L1276.04 115.894ZM1284.13 108.846H1282.77V96.887H1286.98V105.986H1286.98C1286.98 106.744 1286.68 107.471 1286.14 108.008C1285.61 108.544 1284.88 108.846 1284.13 108.846L1284.13 108.846Z" fill="#8579FC"/>
<path d="M1387.38 76.6438L1379.77 58.2619C1377.45 52.6901 1372.94 48.3752 1367.35 46.3798L1358.27 43.1479C1357.93 43.0386 1357.56 43.0976 1357.27 43.306C1356.98 43.5152 1356.8 43.8503 1356.78 44.2129C1356.78 46.4001 1352.05 48.1132 1346 48.1132C1339.96 48.1132 1335.22 46.4002 1335.22 44.2129C1335.21 43.8503 1335.03 43.5152 1334.74 43.306C1334.45 43.0976 1334.08 43.0386 1333.74 43.1479L1324.65 46.3798C1319.06 48.3752 1314.55 52.6901 1312.24 58.2619L1304.62 76.6438C1304.5 76.9348 1304.5 77.2644 1304.63 77.5522C1304.76 77.8401 1305 78.0588 1305.3 78.1555L1309.29 79.469V112.39C1309.29 113.286 1309.64 114.146 1310.26 114.78C1310.88 115.415 1311.72 115.771 1312.6 115.772H1320.87H1320.87C1321.1 116.804 1321.66 117.726 1322.47 118.389C1323.27 119.051 1324.28 119.413 1325.31 119.415H1366.69C1367.73 119.413 1368.73 119.051 1369.54 118.389C1370.34 117.726 1370.9 116.804 1371.13 115.772H1379.03C1379.91 115.771 1380.75 115.415 1381.37 114.78C1381.99 114.146 1382.34 113.286 1382.34 112.39V79.5918L1386.71 78.1548C1387 78.0573 1387.24 77.8387 1387.37 77.5508C1387.5 77.2629 1387.5 76.9334 1387.38 76.6424L1387.38 76.6438ZM1337.45 49.0427C1340.2 49.9755 1343.1 50.4238 1346 50.3695C1350.2 50.3695 1354.42 49.5641 1356.87 47.8353V47.8345C1356.16 51.2535 1353.96 54.1503 1350.88 55.6864C1347.81 57.2233 1344.22 57.2272 1341.14 55.699C1338.07 54.17 1335.85 51.2795 1335.14 47.862C1335.86 48.3528 1336.63 48.7492 1337.45 49.0426V49.0427ZM1320.76 113.517H1312.6H1312.6C1311.99 113.516 1311.5 113.012 1311.5 112.39V80.1961L1320.76 83.2447L1320.76 113.517ZM1320.76 80.8762L1307.12 76.3875L1308.74 72.4706L1320.76 76.1304L1320.76 80.8762ZM1369.03 114.768C1369.03 116.089 1367.98 117.159 1366.69 117.161H1325.31C1324.02 117.159 1322.97 116.089 1322.97 114.768V113.663H1369.03L1369.03 114.768ZM1370.14 66.5904L1370.14 66.5896C1369.84 66.5896 1369.56 66.7083 1369.36 66.9199C1369.15 67.1315 1369.03 67.4186 1369.03 67.7174V111.407H1322.97V67.7174C1322.97 67.0945 1322.47 66.5896 1321.86 66.5896C1321.25 66.5896 1320.76 67.0945 1320.76 67.7174V73.7769L1309.61 70.3815L1314.27 59.1413H1314.27C1316.34 54.1563 1320.37 50.2952 1325.38 48.5106L1332.71 45.9033L1332.71 45.9025C1332.84 50.6611 1335.4 55.0012 1339.46 57.3417C1343.52 59.6822 1348.48 59.6824 1352.54 57.3417C1356.6 55.001 1359.16 50.6609 1359.29 45.9031L1366.62 48.5104C1371.63 50.2951 1375.66 54.1561 1377.73 59.1411L1382.4 70.4113L1371.24 73.8107V67.7175C1371.24 67.4186 1371.13 67.1315 1370.92 66.9199C1370.71 66.7084 1370.43 66.5896 1370.14 66.5896L1370.14 66.5904ZM1380.13 112.392C1380.13 113.014 1379.64 113.518 1379.03 113.519H1371.24V83.2456L1380.13 80.3206L1380.13 112.392ZM1371.24 80.8762V76.165L1383.27 72.5014L1384.88 76.3877L1371.24 80.8762Z" fill="#8579FC"/>
<path d="M1362.64 66.5922H1351.83C1351.54 66.5922 1351.26 66.7109 1351.05 66.9225C1350.84 67.1341 1350.73 67.4212 1350.73 67.72V78.42C1350.73 79.3166 1351.08 80.1763 1351.7 80.811C1352.32 81.445 1353.16 81.8013 1354.04 81.8029H1360.43C1361.31 81.8013 1362.15 81.445 1362.77 80.811C1363.39 80.1763 1363.74 79.3166 1363.74 78.42V67.72C1363.74 67.4211 1363.62 67.1341 1363.42 66.9225C1363.21 66.7109 1362.93 66.5922 1362.64 66.5922H1362.64ZM1361.53 78.4191V78.4199C1361.53 79.042 1361.04 79.547 1360.43 79.547H1354.04C1353.43 79.547 1352.94 79.042 1352.93 78.4199V68.8479H1361.53L1361.53 78.4191Z" fill="#8579FC"/>
<path d="M1192.64 14.2814H1141.3C1140.6 14.2814 1140.03 14.8348 1139.99 15.539L1134.74 118.114C1134.71 118.694 1135.06 119.227 1135.6 119.428C1138.52 120.516 1142.76 121.14 1147.22 121.14C1151.25 121.14 1155.05 120.642 1157.93 119.74C1158.42 119.585 1158.78 119.156 1158.84 118.641L1159.74 111.567C1159.84 111.352 1159.9 111.119 1159.87 110.866C1159.87 110.827 1159.85 110.797 1159.84 110.759L1166.97 54.2835L1174.1 110.761C1174.09 110.798 1174.07 110.829 1174.07 110.867C1174.04 111.119 1174.1 111.351 1174.2 111.565L1175.1 118.641C1175.16 119.157 1175.52 119.586 1176.01 119.74C1178.89 120.644 1182.69 121.14 1186.72 121.14C1191.18 121.14 1195.42 120.517 1198.34 119.429C1198.88 119.228 1199.23 118.696 1199.2 118.115L1193.95 15.5395C1193.91 14.8353 1193.34 14.282 1192.64 14.282L1192.64 14.2814ZM1192.48 38.1972C1189.35 37.8761 1186.89 35.225 1186.89 31.942L1186.7 24.8365H1191.8L1192.48 38.1972ZM1191.66 22.1834H1173.63V16.934H1191.39L1191.66 22.1834ZM1163.79 22.1834V16.934H1171.01V22.1834H1163.79ZM1161.17 16.935V22.1843L1142.28 22.1834L1142.55 16.9341L1161.17 16.935ZM1142.14 24.8362H1147.24L1147.05 31.9778C1147.05 35.2266 1144.59 37.8757 1141.46 38.1969L1142.14 24.8362ZM1147.22 118.486C1143.51 118.486 1140 118.038 1137.42 117.244L1137.67 112.315C1140.95 112.689 1144.55 112.897 1148.2 112.897C1151.24 112.897 1154.17 112.759 1156.97 112.501L1156.35 117.437C1153.82 118.115 1150.62 118.486 1147.22 118.486L1147.22 118.486ZM1166.97 42.4817C1166.31 42.4817 1165.75 42.9776 1165.67 43.6402L1157.31 109.804C1154.42 110.091 1151.37 110.244 1148.2 110.244C1144.59 110.244 1141.04 110.037 1137.81 109.662L1141.32 40.8905C1145.97 40.6333 1149.68 36.7422 1149.68 32.0138L1149.87 24.8379H1184.08L1184.26 31.9794C1184.26 36.7413 1187.97 40.634 1192.62 40.8903L1196.14 109.662C1192.91 110.037 1189.35 110.244 1185.74 110.244C1182.57 110.244 1179.52 110.091 1176.63 109.804L1168.27 43.6399C1168.19 42.9774 1167.63 42.4814 1166.97 42.4814L1166.97 42.4817ZM1186.72 118.486C1183.32 118.486 1180.12 118.115 1177.59 117.437L1176.97 112.502C1179.77 112.76 1182.7 112.897 1185.74 112.897C1189.39 112.897 1192.99 112.689 1196.27 112.316L1196.52 117.244C1193.93 118.038 1190.43 118.486 1186.72 118.486L1186.72 118.486Z" fill="#8579FC"/>
<path d="M1550.49 49.7855C1550.24 47.8762 1548.64 46.4357 1546.75 46.4357L1496.44 46.4365C1494.55 46.4365 1492.95 47.8761 1492.7 49.7864L1484.09 116.838C1484.08 116.889 1484.08 116.941 1484.08 116.992C1484.08 120.477 1495.93 120.854 1501.03 120.854C1506.07 120.854 1517.73 120.485 1517.97 117.1L1521.6 89.6628L1524.24 109.7C1524.16 109.821 1524.1 109.954 1524.08 110.103C1524 110.517 1524.15 110.908 1524.44 111.176L1525.22 117.1C1525.46 120.485 1537.12 120.854 1542.16 120.854C1547.26 120.854 1559.11 120.478 1559.11 116.992C1559.11 116.941 1559.11 116.889 1559.1 116.838L1550.49 49.7855ZM1548.21 50.0927L1548.7 53.9458H1543.56V48.7903H1546.75C1547.49 48.7911 1548.11 49.3512 1548.21 50.0927L1548.21 50.0927ZM1501.81 53.9458V48.7903H1506.46V53.9458H1501.81ZM1508.77 48.7909H1513.42V53.9465H1508.77V48.7909ZM1515.72 48.7909H1520.38V53.9465H1515.72V48.7909ZM1522.68 48.7909H1527.34V53.9465H1522.68V48.7909ZM1529.64 48.7909H1534.3V53.9465H1529.64V48.7909ZM1536.6 48.7909H1541.25V53.9465H1536.6V48.7909ZM1496.44 48.7909H1499.5V53.9465H1494.49L1494.99 50.0933C1495.08 49.3509 1495.71 48.7908 1496.44 48.7908L1496.44 48.7909ZM1501.03 118.498C1492.44 118.498 1487.53 117.41 1486.43 116.73L1487.07 111.746C1491.41 112.506 1496.46 112.91 1501.78 112.91C1507.05 112.91 1512.05 112.518 1516.35 111.776L1515.71 116.681C1514.77 117.356 1509.83 118.498 1501.03 118.498H1501.03ZM1521.6 79.6763C1521.02 79.6763 1520.53 80.1124 1520.46 80.6963L1516.68 109.322C1512.38 110.116 1507.14 110.554 1501.78 110.554C1496.55 110.554 1491.6 110.156 1487.37 109.409L1494.19 56.2995H1513.42V69.0031C1513.42 69.6536 1513.94 70.1808 1514.57 70.1808C1515.21 70.1808 1515.73 69.6536 1515.73 69.0031L1515.72 56.3004H1527.34V66.2758C1527.34 71.3781 1531.4 75.5294 1536.39 75.5294C1537.03 75.5294 1537.54 75.0022 1537.54 74.3518C1537.54 73.7013 1537.03 73.1741 1536.39 73.1741C1532.67 73.1741 1529.64 70.0789 1529.64 66.2751V56.2997H1549L1555.82 109.361C1551.53 110.14 1546.48 110.556 1541.13 110.556C1535.89 110.556 1530.76 110.136 1526.52 109.375L1522.74 80.6974C1522.66 80.1135 1522.17 79.6774 1521.6 79.6774L1521.6 79.6763ZM1542.16 118.498C1533.37 118.498 1528.42 117.356 1527.49 116.681L1526.85 111.826C1531.09 112.536 1535.98 112.91 1541.13 112.91C1546.57 112.91 1551.72 112.488 1556.12 111.697L1556.77 116.73C1555.67 117.41 1550.75 118.498 1542.16 118.498L1542.16 118.498Z" fill="#8579FC"/>
<path d="M1652.1 46.5797C1649.99 45.2258 1647.52 44.0115 1645.04 43.0711C1645.4 42.2128 1645.61 41.321 1645.61 40.3981C1645.61 40.1986 1645.59 38.7186 1645.58 37.6614C1645.56 36.4775 1644.57 35.5136 1643.37 35.5136L1601.66 35.5144C1600.46 35.5144 1599.47 36.479 1599.45 37.663C1599.44 38.7194 1599.43 40.2002 1599.43 40.3989C1599.43 41.3339 1599.64 42.237 1600.01 43.1061C1597.56 44.0418 1595.12 45.2424 1593.04 46.5797C1588.55 49.4561 1585.76 54.3405 1585.56 59.6765L1585.18 98.794C1585.15 99.7503 1585.54 100.653 1586.25 101.3V104.193C1586.25 105.993 1587.73 107.457 1589.56 107.457H1597.44C1597.67 108.411 1598.2 109.272 1598.96 109.902V112.943C1598.96 115.342 1600.94 117.294 1603.38 117.294H1641.8C1644.24 117.294 1646.22 115.342 1646.22 112.943V109.852C1646.95 109.226 1647.46 108.387 1647.68 107.456H1655.56C1657.39 107.456 1658.88 105.992 1658.88 104.192V101.318C1658.89 101.308 1658.9 101.304 1658.92 101.292C1659.61 100.646 1659.99 99.7343 1659.96 98.8228L1659.58 59.647C1659.38 54.3413 1656.59 49.4562 1652.1 46.5798L1652.1 46.5797ZM1625.53 50.1179C1627.18 46.944 1632.66 38.2855 1643.38 38.2482C1643.39 39.1961 1643.4 40.2351 1643.4 40.3989C1643.4 45.2493 1635.48 49.4037 1625.53 50.1177L1625.53 50.1179ZM1602.62 43.3231V43.3208C1602.59 43.2305 1602.53 43.1607 1602.48 43.0848C1601.94 42.2265 1601.63 41.3264 1601.63 40.3982C1601.63 40.2343 1601.65 39.1953 1601.66 38.2483C1612.47 38.309 1617.85 46.9259 1619.47 50.1141C1611.61 49.5449 1605.03 46.834 1602.62 43.3232L1602.62 43.3231ZM1621.95 50.2234C1621.29 48.7632 1617.53 41.0867 1609.58 37.6904H1635.4C1627.45 41.0881 1623.69 48.767 1623.04 50.2249C1622.86 50.2272 1622.69 50.2378 1622.52 50.2378C1622.32 50.2378 1622.14 50.2264 1621.95 50.2234L1621.95 50.2234ZM1587.77 59.7267C1587.94 55.1268 1590.36 50.8942 1594.24 48.4043C1596.3 47.086 1598.72 45.9067 1601.14 45.0095C1603.75 48.3716 1609.17 50.9238 1615.98 51.9341V63.0843C1615.98 63.6854 1616.47 64.1726 1617.08 64.1726C1617.69 64.1726 1618.18 63.6854 1618.18 63.0843V52.2028C1619.58 52.3363 1621.03 52.4137 1622.51 52.4137C1623.98 52.4137 1625.41 52.3371 1626.8 52.2065V62.0953C1626.8 66.8106 1630.69 70.647 1635.48 70.647C1636.09 70.647 1636.58 70.1597 1636.58 69.5587C1636.58 68.9576 1636.09 68.4704 1635.48 68.4704C1631.91 68.4704 1629.01 65.6099 1629.01 62.0947V51.9401C1635.85 50.9315 1641.31 48.3626 1643.92 44.9769C1646.36 45.8778 1648.82 47.07 1650.9 48.4043C1654.78 50.8943 1657.2 55.127 1657.37 59.698L1657.75 98.8757C1657.76 99.1079 1657.67 99.3219 1657.54 99.5109H1647.8L1647.8 63.2397C1647.8 62.6386 1647.31 62.1514 1646.7 62.1514C1646.09 62.1514 1645.59 62.6386 1645.59 63.2397V106.462C1645.59 107.146 1645.27 107.778 1644.75 108.214C1644.61 108.15 1644.46 108.11 1644.29 108.11H1600.23C1599.79 107.681 1599.53 107.089 1599.53 106.462V63.2397C1599.53 62.6386 1599.04 62.1514 1598.42 62.1514C1597.81 62.1514 1597.32 62.6386 1597.32 63.2397V99.5109H1588.01C1587.89 99.5109 1587.77 99.5435 1587.65 99.5822C1587.49 99.3788 1587.38 99.1345 1587.39 98.8461L1587.77 59.7267ZM1588.45 104.195V101.687H1597.32V105.283H1589.56C1588.95 105.282 1588.45 104.794 1588.45 104.195L1588.45 104.195ZM1641.8 115.121H1603.38C1602.16 115.121 1601.17 114.145 1601.17 112.945V110.287H1644.01V112.945C1644.01 114.145 1643.02 115.121 1641.8 115.121H1641.8ZM1655.56 105.282H1647.8V101.686H1656.67V104.194C1656.67 104.794 1656.17 105.282 1655.56 105.282L1655.56 105.282Z" fill="#8579FC"/>
</svg>
