<svg width="190" height="30" viewBox="0 0 190 30" fill="none" xmlns="http://www.w3.org/2000/svg">
<path d="M32.099 0.264485H27.9997C27.7069 0.264485 27.4507 0.415617 27.3043 0.680101L16.324 20.2897L5.38034 0.680101C5.23393 0.415617 4.97773 0.264485 4.68492 0.264485H0.585615C0.219605 0.264485 0 0.528969 0 0.86902V29.0932C0 29.471 0.256206 29.7355 0.658816 29.7355H4.83132C5.19733 29.7355 5.41694 29.4332 5.41694 29.0932V10.9194L15.4822 28.9421C15.7018 29.2821 15.8848 29.4332 16.2142 29.4332H16.4704C16.7632 29.4332 16.9828 29.2821 17.2024 28.9421L27.2311 10.8816V29.0932C27.2311 29.471 27.4873 29.7355 27.8899 29.7355H32.0624C32.4284 29.7355 32.648 29.4332 32.648 29.0932V0.86902C32.648 0.528969 32.465 0.264485 32.099 0.264485Z" fill="black"/>
<path d="M64.2561 28.8665L51.885 0.793452C51.7386 0.491184 51.519 0.264485 51.1895 0.264485H48.8471C48.5177 0.264485 48.2981 0.491184 48.1517 0.793452L35.8172 28.8665C35.5609 29.4332 35.8904 29.7355 36.2564 29.7355H40.7583C41.1243 29.7355 41.3073 29.4332 41.5635 28.9043L42.9177 25.7683H57.1555L58.5097 28.9043C58.7293 29.4332 58.9489 29.7355 59.2784 29.7355H63.7803C64.1463 29.7355 64.5123 29.4332 64.2561 28.8665ZM44.8576 21.272L50.0183 9.33249L55.2156 21.272H44.8576Z" fill="black"/>
<path d="M66.8154 24.597C66.4494 25.0882 66.5958 25.4282 66.8886 25.6927C67.7671 26.5239 70.8049 30 76.4415 30C82.3342 30 86.2871 26.335 86.2871 21.461C86.2871 16.2091 81.6754 14.1688 76.7709 11.8262C74.0624 10.6927 72.5984 9.93703 72.5984 8.08564C72.5984 6.30982 74.099 5.32746 76.2219 5.32746C78.7473 5.32746 81.1264 7.14106 81.8584 7.67003C82.2976 8.04786 82.7368 7.89673 83.1394 7.32998L85.2989 4.42066C85.5917 4.04282 85.4453 3.6272 85.0793 3.28715C84.2009 2.56927 81.3826 0 76.5513 0C70.5853 0 67.0716 3.8539 67.0716 8.16121C67.0716 12.7708 70.9879 14.8111 76.6245 17.5693C78.7107 18.4761 80.7604 19.2695 80.7604 21.3476C80.7604 23.0856 79.3695 24.6725 76.5147 24.6725C73.1474 24.6725 71.0611 22.4433 70.0729 21.4987C69.8167 21.2343 69.2311 21.1965 68.9383 21.6499L66.8154 24.597Z" fill="black"/>
<path d="M107.932 0.264485H88.8628C88.4602 0.264485 88.204 0.528968 88.204 0.906802V4.68514C88.204 5.06297 88.4968 5.28967 88.8628 5.28967H95.5241V29.0932C95.5241 29.471 95.7803 29.7355 96.1464 29.7355H100.355C100.721 29.7355 100.941 29.4332 100.941 29.0932V5.28967H107.932C108.261 5.28967 108.517 5.02519 108.517 4.64736V0.86902C108.517 0.491185 108.261 0.264485 107.932 0.264485Z" fill="black"/>
<path d="M130.679 24.7103H117.65V17.3426H127.093C127.495 17.3426 127.751 17.0781 127.751 16.6625V12.9219C127.751 12.5441 127.459 12.2796 127.093 12.2796H117.65V5.28967H130.313C130.679 5.28967 130.936 5.06297 130.936 4.64736V0.86902C130.936 0.528969 130.643 0.264485 130.313 0.264485H112.855C112.452 0.264485 112.233 0.528969 112.233 0.86902V29.0932C112.233 29.4332 112.489 29.7355 112.855 29.7355H130.679C131.082 29.7355 131.302 29.471 131.302 29.0932V25.3149C131.302 24.9748 131.045 24.7103 130.679 24.7103Z" fill="black"/>
<path d="M157.261 28.7154L151.845 19.9118C155.505 18.1738 157.261 14.4332 157.261 10.6171C157.261 5.36524 153.931 0.264485 147.05 0.264485H135.63C135.228 0.264485 135.008 0.528969 135.008 0.86902V29.0932C135.008 29.471 135.264 29.7355 135.63 29.7355H139.839C140.205 29.7355 140.425 29.4332 140.425 29.0932V20.932H146.794L151.808 29.131C152.064 29.5466 152.394 29.7355 152.869 29.7355H156.712C157.371 29.7355 157.591 29.2821 157.261 28.7154ZM140.425 5.28967H146.94C150.161 5.28967 151.881 7.63224 151.881 10.6171C151.881 13.5642 150.161 15.9068 146.94 15.9068H140.425V5.28967Z" fill="black"/>
<path d="M166.98 3.81612C166.943 1.39799 165.442 0 163.759 0C162.075 0 160.684 1.39798 160.684 3.1738C160.684 4.91184 162.075 6.38539 163.759 6.38539C163.905 6.38539 164.125 6.34761 164.271 6.30982C163.978 7.93451 163.063 8.72796 161.819 9.74811C161.636 9.89924 161.563 10.0882 161.746 10.2771L162.185 10.9572C162.405 11.2594 162.697 11.2217 162.954 11.0327C165.662 9.40806 167.016 6.19648 166.98 3.81612Z" fill="black"/>
<path d="M170.528 24.597C170.162 25.0882 170.309 25.4282 170.602 25.6927C171.48 26.5239 174.518 30 180.154 30C186.047 30 190 26.335 190 21.461C190 16.2091 185.388 14.1688 180.484 11.8262C177.775 10.6927 176.311 9.93703 176.311 8.08564C176.311 6.30982 177.812 5.32746 179.935 5.32746C182.46 5.32746 184.839 7.14106 185.571 7.67003C186.011 8.04786 186.45 7.89673 186.852 7.32998L189.012 4.42066C189.305 4.04282 189.158 3.6272 188.792 3.28715C187.914 2.56927 185.095 0 180.264 0C174.298 0 170.785 3.8539 170.785 8.16121C170.785 12.7708 174.701 14.8111 180.337 17.5693C182.424 18.4761 184.473 19.2695 184.473 21.3476C184.473 23.0856 183.082 24.6725 180.228 24.6725C176.86 24.6725 174.774 22.4433 173.786 21.4987C173.53 21.2343 172.944 21.1965 172.651 21.6499L170.528 24.597Z" fill="black"/>
</svg>
