<svg width="17" height="18" viewBox="0 0 17 18" fill="none" xmlns="http://www.w3.org/2000/svg">
<path d="M13.3583 14.5C12.0444 14.5 10.7638 14.2097 9.51628 13.6292C8.26839 13.0486 7.1633 12.2745 6.201 11.3069C5.2383 10.3394 4.46422 9.23161 3.87878 7.98372C3.29293 6.73624 3 5.45556 3 4.14167V3.82083C3 3.7088 3.01019 3.60185 3.03056 3.5H6.60556L7.17083 6.57083L5.42917 8.32778C5.85694 9.06111 6.39431 9.74861 7.04128 10.3903C7.68783 11.0319 8.39815 11.587 9.17222 12.0556L10.9444 10.2833L14 10.8944V14.4694C13.8981 14.4796 13.7912 14.4874 13.6792 14.4927C13.5671 14.4976 13.4602 14.5 13.3583 14.5Z" fill="black"/>
</svg>
