<svg width="34" height="34" viewBox="0 0 34 34" fill="none" xmlns="http://www.w3.org/2000/svg">
<path d="M17.0026 2.8335C9.1826 2.8335 2.83594 9.18016 2.83594 17.0002C2.83594 24.8202 9.1826 31.1668 17.0026 31.1668C24.8226 31.1668 31.1693 24.8202 31.1693 17.0002C31.1693 9.18016 24.8226 2.8335 17.0026 2.8335ZM23.5759 12.4668C23.3634 14.7052 22.4426 20.1452 21.9751 22.6527C21.7768 23.7152 21.3801 24.0693 21.0118 24.1118C20.1901 24.1827 19.5668 23.5735 18.7734 23.0493C17.5268 22.2277 16.8184 21.7177 15.6143 20.9243C14.2118 20.0035 15.1184 19.4935 15.9259 18.6718C16.1384 18.4593 19.7651 15.1585 19.8359 14.861C19.8458 14.8159 19.8445 14.7692 19.8321 14.7247C19.8198 14.6803 19.7968 14.6395 19.7651 14.606C19.6801 14.5352 19.5668 14.5635 19.4676 14.5777C19.3401 14.606 17.3568 15.9235 13.4893 18.5302C12.9226 18.9127 12.4126 19.111 11.9593 19.0968C11.4493 19.0827 10.4859 18.8135 9.76344 18.5727C8.87094 18.2893 8.17677 18.1335 8.23344 17.6377C8.26177 17.3827 8.61594 17.1277 9.28177 16.8585C13.4184 15.0593 16.1668 13.8693 17.5409 13.3027C21.4793 11.6593 22.2868 11.376 22.8251 11.376C22.9384 11.376 23.2076 11.4043 23.3776 11.546C23.5193 11.6593 23.5618 11.8152 23.5759 11.9285C23.5618 12.0135 23.5901 12.2685 23.5759 12.4668Z" fill="#7166DD"/>
</svg>
