<svg width="34" height="34" viewBox="0 0 34 34" fill="none" xmlns="http://www.w3.org/2000/svg">
<path d="M2.84162 31.1668L4.75696 24.1288C3.4949 21.9654 2.83184 19.5048 2.83596 17.0002C2.83596 9.17591 9.17837 2.8335 17.0026 2.8335C24.8269 2.8335 31.1693 9.17591 31.1693 17.0002C31.1693 24.8244 24.8269 31.1668 17.0026 31.1668C14.4991 31.1709 12.0396 30.5083 9.87679 29.2472L2.84162 31.1668ZM11.8899 10.3532C11.7069 10.3645 11.5282 10.4127 11.3643 10.4948C11.2106 10.5819 11.0703 10.6906 10.9478 10.8178C10.7778 10.9779 10.6815 11.1167 10.578 11.2513C10.0545 11.9327 9.77282 12.7692 9.77762 13.6285C9.78046 14.3227 9.96179 14.9984 10.2451 15.6302C10.8245 16.9081 11.778 18.261 13.0374 19.5147C13.3405 19.8165 13.6366 20.1197 13.9554 20.4016C15.5185 21.7778 17.3812 22.7703 19.3954 23.3001L20.2015 23.4233C20.4635 23.4375 20.7256 23.4177 20.9891 23.4049C21.4017 23.3836 21.8046 23.2719 22.1692 23.0777C22.3547 22.9821 22.5358 22.8781 22.7118 22.766C22.7118 22.766 22.7727 22.7263 22.8889 22.6385C23.0801 22.4968 23.1977 22.3962 23.3564 22.2305C23.474 22.1087 23.576 21.9656 23.6539 21.8027C23.7644 21.5717 23.8749 21.1312 23.9202 20.7642C23.9542 20.4837 23.9443 20.3307 23.94 20.2358C23.9344 20.0842 23.8083 19.927 23.6709 19.8604L22.8464 19.4907C22.8464 19.4907 21.6139 18.9537 20.8616 18.6109C20.7823 18.5763 20.6973 18.5567 20.6109 18.5528C20.5139 18.5429 20.416 18.5538 20.3236 18.5848C20.2313 18.6158 20.1466 18.6663 20.0754 18.7327V18.7299C20.0683 18.7299 19.9734 18.8107 18.9491 20.0517C18.8903 20.1307 18.8094 20.1904 18.7165 20.2232C18.6237 20.256 18.5232 20.2604 18.4278 20.2358C18.3355 20.2111 18.2451 20.1799 18.1572 20.1423C17.9815 20.0687 17.9206 20.0403 17.8002 19.9879L17.7931 19.9851C16.9827 19.6312 16.2323 19.1533 15.569 18.5684C15.3905 18.4126 15.2247 18.2426 15.0547 18.0782C14.4974 17.5445 14.0116 16.9407 13.6097 16.2819L13.5261 16.1473C13.4661 16.0569 13.4175 15.9593 13.3816 15.8569C13.3278 15.6487 13.468 15.4815 13.468 15.4815C13.468 15.4815 13.8123 15.1047 13.9724 14.9007C14.1057 14.7311 14.23 14.5547 14.345 14.3722C14.5121 14.1031 14.5645 13.8268 14.4767 13.6129C14.08 12.6439 13.6692 11.6792 13.247 10.7215C13.1635 10.5317 12.9155 10.3957 12.6903 10.3687C12.6138 10.3602 12.5373 10.3517 12.4608 10.3461C12.2705 10.3366 12.0799 10.3385 11.8899 10.3517V10.3532Z" fill="#7166DD"/>
</svg>
