<svg width="32" height="32" viewBox="0 0 32 32" fill="none" xmlns="http://www.w3.org/2000/svg">
<circle cx="16" cy="16" r="16" fill="white"/>
<path d="M10.5027 17.3783C9.93696 17.3783 9.47656 17.8424 9.47656 18.4127C9.47656 18.9833 9.93683 19.4477 10.5027 19.4477C11.0683 19.4477 11.5287 18.9833 11.5287 18.4127C11.5287 17.8422 11.0683 17.3783 10.5027 17.3783ZM10.5027 18.9269C10.224 18.9269 9.9973 18.6961 9.9973 18.4127C9.9973 18.1294 10.224 17.8988 10.5027 17.8988C10.7813 17.8988 11.008 18.1294 11.008 18.4127C11.008 18.6961 10.7813 18.9269 10.5027 18.9269Z" fill="black"/>
<path d="M22.8542 17.3782C22.2885 17.3782 21.8281 17.8424 21.8281 18.4127C21.8281 18.9832 22.2884 19.4476 22.8542 19.4476C23.4199 19.4476 23.8803 18.9832 23.8803 18.4127C23.8803 17.8422 23.4199 17.3782 22.8542 17.3782ZM22.8542 18.9269C22.5756 18.9269 22.3489 18.696 22.3489 18.4127C22.3489 18.1294 22.5756 17.8988 22.8542 17.8988C23.1329 17.8988 23.3596 18.1293 23.3596 18.4127C23.3596 18.6961 23.1329 18.9269 22.8542 18.9269Z" fill="black"/>
<path d="M26.9845 15.8347C25.4747 14.9772 23.7811 14.6996 22.0289 14.9161C21.0896 14.1153 18.5736 12.5938 17.6337 12.5938H13.8093C13.7005 12.5938 13.5935 12.6016 13.491 12.6168C11.9922 12.8405 10.2587 13.2585 8.7669 14.6648C8.62891 14.795 8.43846 14.8665 8.23029 14.8665H7.47536C6.98588 14.8665 6.53947 15.141 6.31061 15.5833C5.85137 16.4704 5.75647 17.2927 6.02009 18.0961C6.0926 18.3188 6.25398 18.5049 6.47365 18.6195C6.95363 18.8713 7.64159 19.0414 8.57295 19.1429C8.86815 19.9278 9.62192 20.4886 10.5057 20.4886C11.3497 20.4886 12.0761 19.9774 12.3968 19.2477H20.9632C21.2842 19.9774 22.0104 20.4886 22.8544 20.4886C23.6977 20.4886 24.4198 19.9764 24.7408 19.2477H25.9958C26.6128 19.2477 27.1145 18.746 27.1145 18.1294V16.8799C27.1145 16.8776 27.1158 16.8756 27.1158 16.8732L27.116 16.0611C27.116 15.9676 27.0658 15.8812 26.9842 15.8348L26.9845 15.8347ZM17.6341 13.1145C18.2668 13.1145 20.3755 14.3053 21.2123 14.9335L16.3371 14.9583C16.2197 14.2706 16.0581 13.6352 15.9033 13.1145L17.6341 13.1145ZM12.6936 13.2872C12.9223 13.239 13.5581 13.1145 13.8096 13.1145H15.359C15.4989 13.5706 15.6743 14.223 15.8043 14.961L13.1954 14.9744L12.0365 14.2879C12.2166 13.9383 12.4363 13.6027 12.6935 13.2873L12.6936 13.2872ZM10.5061 19.968C9.65324 19.968 8.95942 19.27 8.95942 18.4125C8.95942 17.555 9.65324 16.8573 10.5061 16.8573C11.3589 16.8573 12.0527 17.555 12.0527 18.4125C12.0527 19.27 11.3589 19.968 10.5061 19.968ZM15.6985 18.7271H12.5469C12.5626 18.6241 12.5733 18.5197 12.5733 18.4125C12.5733 17.2678 11.6459 16.3366 10.5059 16.3366C9.36607 16.3366 8.43851 17.2678 8.43851 18.4125C8.43851 18.4775 8.44236 18.5414 8.4482 18.6048C7.68022 18.5095 7.10452 18.3622 6.71559 18.1582C6.61803 18.1074 6.54502 18.0261 6.51528 17.9342C6.29693 17.2701 6.38147 16.5793 6.77322 15.8227C6.91222 15.5539 7.18136 15.3872 7.47556 15.3872H8.2305C8.57181 15.3872 8.88904 15.2652 9.12426 15.0438C9.99083 14.2269 10.9551 13.767 11.903 13.4853C11.7345 13.7414 11.5843 14.0061 11.4584 14.2787C11.4529 14.2906 11.4533 14.3031 11.4498 14.3153C11.4447 14.3325 11.4389 14.3492 11.4376 14.3668C11.4362 14.3835 11.4386 14.3992 11.4404 14.4157C11.4422 14.4324 11.4432 14.4485 11.4483 14.4645C11.4533 14.4807 11.4616 14.4947 11.4696 14.5096C11.4775 14.5241 11.4843 14.5383 11.4949 14.5512C11.5059 14.5647 11.5198 14.5749 11.5336 14.5861C11.5437 14.5943 11.5507 14.605 11.5622 14.6118L12.9919 15.4589C13.0319 15.4826 13.0776 15.4951 13.1244 15.4951H13.1257L15.885 15.4811C16.0291 16.5533 16.041 17.7344 15.6985 18.7271L15.6985 18.7271ZM22.8549 19.968C22.002 19.968 21.3082 19.27 21.3082 18.4125C21.3082 17.555 22.002 16.8573 22.8549 16.8573C23.7077 16.8573 24.4015 17.555 24.4015 18.4125C24.4015 19.27 23.7077 19.968 22.8549 19.968ZM26.5944 18.1295C26.5944 18.4589 26.3263 18.7271 25.9965 18.7271H24.8961C24.9118 18.6242 24.9225 18.5198 24.9225 18.4125C24.9225 17.2678 23.9951 16.3366 22.8551 16.3366C21.7153 16.3366 20.7877 17.2678 20.7877 18.4125C20.7877 18.5198 20.7984 18.6242 20.8141 18.7271H16.2499C16.56 17.7082 16.5538 16.553 16.4148 15.4786L21.9494 15.4503C21.9564 15.4503 21.9621 15.4468 21.9689 15.4463C21.9735 15.4458 21.9778 15.448 21.9823 15.4473C23.1147 15.2933 24.18 15.3621 25.1694 15.6406V16.1308C25.1694 16.6839 25.6196 17.1338 26.1727 17.1338H26.5947L26.5944 18.1295ZM26.5944 16.6129H26.1724C25.9063 16.6129 25.6898 16.3967 25.6898 16.1306V15.8097C25.9255 15.8969 26.1347 15.9801 26.4541 16.144C26.5391 16.1979 26.5944 16.2962 26.5944 16.4041V16.6129Z" fill="black"/>
</svg>
