<svg width="32" height="32" viewBox="0 0 32 32" fill="none" xmlns="http://www.w3.org/2000/svg">
<circle cx="16" cy="16" r="16" fill="white"/>
<path d="M21.6797 7.06747H18.8672C18.6948 7.06747 18.5547 7.20754 18.5547 7.37997V8.62997H17.9978C17.8381 8.62997 17.6818 8.56524 17.5687 8.45252L16.2753 7.15912C16.2125 7.09635 16.125 7.06356 16.0371 7.06789C15.9484 7.07291 15.8658 7.11532 15.8103 7.18479L15.1127 8.05672C14.8216 8.42083 14.3869 8.62997 13.9204 8.62997C13.2253 8.62997 12.6538 9.14965 12.6191 9.81344C12.606 10.0606 12.6642 10.2984 12.7845 10.506C12.0244 10.5307 11.4072 11.106 11.3691 11.8363C11.353 12.1463 11.4395 12.4419 11.6088 12.6929L11.3672 12.6928C11.2762 12.6928 11.1897 12.7324 11.1303 12.8016C11.0709 12.8704 11.0446 12.9619 11.0582 13.0519L12.9332 25.5519C12.9559 25.7043 13.0875 25.8175 13.2422 25.8175H18.8672C19.0219 25.8175 19.1535 25.7043 19.1762 25.5513L21.0512 13.0513C21.0646 12.9613 21.0384 12.8698 20.9791 12.801C20.9196 12.7321 20.8331 12.6925 20.7422 12.6925H20.4297V8.94248H21.6797C21.8521 8.94248 21.9922 8.80241 21.9922 8.62998V7.37998C21.9922 7.20755 21.8521 7.06748 21.6797 7.06748L21.6797 7.06747ZM12.2069 12.4489C12.0579 12.2921 11.9821 12.0858 11.9934 11.8685C12.0146 11.4615 12.3924 11.1298 12.8354 11.1298H13.8672C13.8722 11.1298 13.8765 11.127 13.8815 11.127V11.1298C14.2243 11.1298 14.5609 11.223 14.8546 11.3995C15.5831 11.8364 16.4168 12.0673 17.2662 12.0673H17.6172V11.4423H17.2662C16.5303 11.4423 15.8074 11.242 15.1762 10.8636C14.7853 10.6289 14.3374 10.5048 13.8672 10.5048C13.694 10.5048 13.5328 10.4355 13.4138 10.3098C13.2948 10.1842 13.2341 10.0195 13.2431 9.84579C13.2603 9.5199 13.564 9.25483 13.9203 9.25483C14.0078 9.25483 14.0944 9.24883 14.1797 9.23865V9.25483H14.2868C15.3433 9.25483 16.3365 9.66611 17.0837 10.4133L17.5255 9.97151C16.9061 9.35208 16.1392 8.93622 15.3052 8.74747C15.4118 8.65749 15.5118 8.55844 15.6011 8.44711L16.0805 7.84807L17.1271 8.89468C17.3563 9.12333 17.6737 9.25489 17.9977 9.25489H18.5547V12.6924H12.7732C12.557 12.6924 12.3557 12.6059 12.2067 12.4489L12.2069 12.4489ZM19.4887 19.255L19.348 20.1925H17.8485C17.7463 20.1925 17.6506 20.2424 17.5922 20.3258C17.2406 20.8293 16.6658 21.13 16.0547 21.13C15.4435 21.13 14.8687 20.8293 14.5171 20.3258C14.4587 20.2424 14.3628 20.1925 14.2608 20.1925H12.7614L12.4802 18.3175H14.2611C14.3632 18.3175 14.459 18.2675 14.5174 18.1841C14.8687 17.6806 15.4435 17.38 16.0547 17.38C16.6658 17.38 17.2406 17.6806 17.5922 18.1841C17.6506 18.2675 17.7465 18.3175 17.8485 18.3175H19.6294L19.4887 19.255ZM18.598 25.1925H13.5112L12.855 20.8175H14.1047C14.5778 21.4075 15.295 21.755 16.0548 21.755C16.8144 21.755 17.5316 21.4075 18.0048 20.8175H19.2546L18.598 25.1925ZM19.723 17.6925H18.0047C17.5316 17.1025 16.8144 16.755 16.0546 16.755C15.295 16.755 14.5778 17.1025 14.1046 17.6925H12.3861L11.7298 13.3175H20.3791L19.723 17.6925ZM21.3671 8.31747H20.1171C19.9447 8.31747 19.8046 8.45754 19.8046 8.62997V12.6925H19.1796V7.69247H21.3671V8.31747Z" fill="black"/>
</svg>
