<svg width="32" height="32" viewBox="0 0 32 32" fill="none" xmlns="http://www.w3.org/2000/svg">
<circle cx="16" cy="16" r="16" fill="white"/>
<path d="M12.3074 8.86738C9.98404 8.87305 8.09375 10.7653 8.09375 13.0925C8.09375 14.5425 8.84803 15.8998 10.0711 16.6711L10.0692 20.1191C10.0692 20.5105 10.4303 20.8564 10.8423 20.8564H12.09C11.988 21.9794 11.2186 22.7146 10.1107 22.7146V23.2307C11.5021 23.2307 12.4983 22.2667 12.608 20.8564H13.8462C14.2356 20.8564 14.542 20.5332 14.5438 20.1191V16.6823C15.0372 16.3779 15.4663 15.9695 15.7952 15.4894L22.6895 13.2871L22.6896 8.86725L12.3074 8.86738ZM22.1733 12.9109L15.5268 15.0339L15.5287 15.0414C15.4833 15.0603 15.4418 15.0925 15.4134 15.1378C15.0939 15.6199 14.661 16.0263 14.1582 16.3137C14.0561 16.3722 14.0088 16.4914 14.0353 16.5992H14.0278V20.119C14.0259 20.2268 13.9635 20.3402 13.8463 20.3402H10.8423C10.7176 20.3402 10.5833 20.2268 10.5833 20.119L10.5871 16.5992H10.5776C10.6117 16.4876 10.5645 16.3628 10.4604 16.3023C9.3186 15.6406 8.60969 14.41 8.60969 13.0923C8.60969 11.0507 10.2676 9.38911 12.3075 9.38337H22.1738L22.1733 12.9109Z" fill="black"/>
<path d="M12.4109 15.533C11.0256 15.533 9.89844 14.4059 9.89844 13.0204C9.89844 11.6352 11.0254 10.508 12.4109 10.508C13.7964 10.508 14.9233 11.6351 14.9233 13.0204C14.9231 14.4059 13.7964 15.533 12.4109 15.533ZM12.4109 11.024C11.3101 11.024 10.4144 11.9196 10.4144 13.0205C10.4144 14.1214 11.31 15.0172 12.4109 15.0172C13.5118 15.0172 14.4076 14.1215 14.4076 13.0205C14.4073 11.9199 13.5118 11.024 12.4109 11.024Z" fill="black"/>
<path d="M24.5979 10.0323H23.5155C23.3731 10.0323 23.2578 9.91686 23.2578 9.77465C23.2578 9.63231 23.3733 9.517 23.5155 9.517H24.5979C24.7402 9.517 24.8555 9.63245 24.8555 9.77465C24.8555 9.91686 24.7401 10.0323 24.5979 10.0323Z" fill="black"/>
<path d="M24.5979 11.3323H23.5155C23.3731 11.3323 23.2578 11.2168 23.2578 11.0746C23.2578 10.9323 23.3733 10.817 23.5155 10.817H24.5979C24.7402 10.817 24.8555 10.9322 24.8555 11.0746C24.8555 11.2166 24.7401 11.3323 24.5979 11.3323Z" fill="black"/>
<path d="M24.5979 12.632H23.5155C23.3731 12.632 23.2578 12.5168 23.2578 12.3743C23.2578 12.2319 23.3733 12.1167 23.5155 12.1167H24.5979C24.7402 12.1167 24.8555 12.2319 24.8555 12.3743C24.8555 12.5165 24.7401 12.632 24.5979 12.632Z" fill="black"/>
</svg>
