<svg width="32" height="32" viewBox="0 0 32 32" fill="none" xmlns="http://www.w3.org/2000/svg">
<circle cx="16" cy="16" r="16" fill="white"/>
<path d="M20.5233 17.2297C20.4346 17.2297 20.3458 17.1939 20.2801 17.1234C19.5201 16.2989 18.6854 15.9527 17.7289 16.0658C17.5481 16.0874 17.3835 15.9581 17.3617 15.7765C17.3401 15.595 17.4694 15.4311 17.6511 15.4093C18.8163 15.271 19.8641 15.6972 20.7652 16.6749C20.8884 16.809 20.8803 17.0177 20.7462 17.1417C20.6825 17.2 20.6025 17.2291 20.5226 17.2291L20.5233 17.2297Z" fill="black"/>
<path d="M18.5778 19.6565C18.4322 19.6565 18.2987 19.5589 18.2588 19.4113C18.2113 19.2351 18.3164 19.0541 18.4924 19.0067C18.8068 18.9227 19.1211 18.8279 19.4273 18.7242C20.6786 18.3022 22.8273 17.3774 23.1644 15.9261L24.4401 10.4321C21.3727 10.5568 18.5337 9.89962 15.9866 8.47619L14.7124 13.9633C14.6527 14.2216 14.6439 14.4993 14.6873 14.7887C14.7144 14.9688 14.5898 15.1369 14.4095 15.1639C14.2294 15.191 14.0615 15.0664 14.0343 14.8862C13.9787 14.5143 13.9909 14.1531 14.0695 13.8143L15.444 7.8929C15.4677 7.78994 15.5395 7.70526 15.6364 7.66396C15.7332 7.62267 15.8444 7.63006 15.9352 7.68419C18.5851 9.26623 21.5813 9.9614 24.8405 9.75058C24.9456 9.74389 25.0459 9.78727 25.1136 9.86651C25.1814 9.94645 25.207 10.0528 25.1835 10.1552L23.8089 16.0766C23.4201 17.7519 21.3269 18.7825 19.6392 19.3516C19.3195 19.4593 18.9916 19.5582 18.6638 19.6463C18.6354 19.6537 18.6062 19.6578 18.5784 19.6578L18.5778 19.6565Z" fill="black"/>
<path d="M21.8636 13.7405C21.6211 13.7405 21.3996 13.6911 21.1997 13.5922C20.7594 13.3733 20.4464 12.9221 20.2689 12.2513C20.2221 12.0751 20.3279 11.8943 20.5039 11.8476C20.6801 11.8008 20.8609 11.9065 20.9077 12.0827C21.0338 12.5616 21.2309 12.8699 21.4938 12.9999C21.7579 13.1308 22.1264 13.1002 22.5891 12.9098C22.7577 12.8401 22.9508 12.9207 23.0207 13.0894C23.0904 13.2582 23.0098 13.4513 22.8411 13.521C22.4861 13.6674 22.1596 13.7405 21.8643 13.7405L21.8636 13.7405Z" fill="black"/>
<path d="M17.7131 12.8579C17.2417 12.8579 16.7701 12.6141 16.3102 12.133C16.1842 12.0009 16.1889 11.7922 16.3211 11.6663C16.4532 11.5401 16.6617 11.5449 16.7877 11.6771C17.1299 12.0349 17.4509 12.2104 17.7436 12.1974C18.0383 12.1845 18.3459 11.9799 18.6588 11.589C18.7727 11.4467 18.9807 11.4236 19.1228 11.5375C19.2651 11.6513 19.2881 11.8593 19.1743 12.0016C18.7374 12.5477 18.2659 12.8356 17.7728 12.8572C17.7531 12.8579 17.7328 12.8586 17.7131 12.8586L17.7131 12.8579Z" fill="black"/>
<path d="M13.7019 22.4512C13.2128 22.4512 12.7 22.3475 12.1641 22.1395C11.994 22.0738 11.9094 21.8821 11.9758 21.7121C12.0415 21.542 12.2332 21.4573 12.4032 21.5237C13.7717 22.0542 14.9138 21.7893 15.8947 20.7142C16.0174 20.5792 16.2266 20.5698 16.3614 20.6931C16.4963 20.8157 16.5058 21.025 16.3824 21.1599C15.5973 22.0204 14.6997 22.4519 13.7026 22.4519L13.7019 22.4512Z" fill="black"/>
<path d="M15.0749 25.4154C15.0539 25.4154 15.0322 25.4134 15.0112 25.4093C14.7979 25.3673 9.77154 24.3462 9.14939 21.6675L7.77425 15.7461C7.75053 15.6445 7.77634 15.5375 7.844 15.4574C7.9118 15.3775 8.01267 15.3355 8.11702 15.3417C11.3755 15.5523 14.3717 14.8573 17.0224 13.2753C17.1132 13.221 17.2242 13.2136 17.3212 13.2549C17.418 13.2963 17.4899 13.3816 17.5136 13.484L18.888 19.4054C19.5356 22.1933 15.4439 25.2236 15.2691 25.3511C15.2123 25.3931 15.1438 25.4149 15.0741 25.4149L15.0749 25.4154ZM8.51744 16.0244L9.79297 21.5183C10.2672 23.5596 14.193 24.548 14.9965 24.7304C15.642 24.2276 18.7405 21.6863 18.2454 19.5557L16.9712 14.0686C14.4234 15.4927 11.5837 16.1492 8.51687 16.0245L8.51744 16.0244Z" fill="black"/>
<path d="M10.2205 19.8126C10.1676 19.8126 10.114 19.7997 10.0646 19.7733C9.90405 19.6872 9.84378 19.4867 9.92986 19.3261C10.2611 18.7102 10.6729 18.3416 11.1539 18.2313C11.6328 18.1215 12.1613 18.2719 12.7235 18.6791C12.8711 18.7861 12.9043 18.9927 12.7973 19.1405C12.6903 19.2882 12.4837 19.3214 12.3359 19.2144C11.935 18.9237 11.5868 18.8098 11.3016 18.8755C11.0144 18.9412 10.7488 19.1988 10.5117 19.6391C10.452 19.7503 10.3383 19.8133 10.2204 19.8133L10.2205 19.8126Z" fill="black"/>
<path d="M14.447 18.8301C14.3941 18.8301 14.3407 18.8171 14.2912 18.7908C14.1306 18.7047 14.0703 18.5042 14.1564 18.3436C14.4876 17.7277 14.8996 17.3593 15.3805 17.2488C15.8601 17.1383 16.3878 17.2894 16.9501 17.6966C17.0978 17.8036 17.131 18.0103 17.0239 18.1579C16.9169 18.3057 16.7103 18.3389 16.5625 18.2319C16.1615 17.9418 15.8133 17.8273 15.5282 17.893C15.2409 17.9587 14.9753 18.2163 14.7383 18.6566C14.6787 18.7677 14.5649 18.8308 14.447 18.8308L14.447 18.8301Z" fill="black"/>
</svg>
