<svg width="32" height="32" viewBox="0 0 32 32" fill="none" xmlns="http://www.w3.org/2000/svg">
<circle cx="16" cy="16" r="16" fill="white"/>
<path d="M9.92539 23.4542H23.0384C23.2648 23.4542 23.4482 23.2708 23.4482 23.0444V21.4053C23.4482 21.1789 23.2648 20.9955 23.0384 20.9955H21.809V15.2586H23.0384C23.2648 15.2586 23.4482 15.0752 23.4482 14.8488V13.2097C23.4482 13.0544 23.3605 12.9125 23.2217 12.8431L16.6652 9.56488C16.5498 9.50702 16.4141 9.50702 16.2986 9.56488L9.74213 12.8431C9.60332 12.9126 9.51562 13.0544 9.51562 13.2097V14.8488C9.51562 15.0752 9.69902 15.2586 9.92541 15.2586H11.1547V20.9955H9.92541C9.69902 20.9955 9.51562 21.1789 9.51562 21.4053V23.0444C9.51562 23.2708 9.69902 23.4542 9.92541 23.4542H9.92539ZM10.3352 14.439V13.4629L16.4819 10.3896L22.6286 13.4629V14.439H10.3352ZM20.9895 15.2586V20.9955H20.1699V15.2586H20.9895ZM19.3504 15.2586V20.9955H17.7112V15.2586H19.3504ZM16.8917 15.2586V20.9955H16.0721V15.2586H16.8917ZM15.2525 15.2586V20.9955H13.6134V15.2586H15.2525ZM12.7939 15.2586V20.9955H11.9743V15.2586H12.7939ZM10.3352 21.8151H22.6286V22.6346H10.3352V21.8151Z" fill="black"/>
</svg>
