<svg width="32" height="32" viewBox="0 0 32 32" fill="none" xmlns="http://www.w3.org/2000/svg">
<circle cx="16" cy="16" r="16" fill="white"/>
<path d="M18.675 11.4005L15.8236 10.8425L16.3003 10.3659C16.424 10.2423 16.424 10.0416 16.3003 9.91792C16.1766 9.79419 15.976 9.79419 15.8523 9.91792C15.0907 10.6929 15.1541 10.5918 15.0953 10.6999L13.4643 10.3808L14.1825 9.66256C14.3063 9.53883 14.3063 9.33828 14.1825 9.21457C14.0588 9.09083 13.8583 9.09083 13.7345 9.21457L12.715 10.2342L10.8319 9.8658C10.7271 9.84611 10.6216 9.87808 10.5469 9.95271L9.41863 11.0813C9.34959 11.1503 9.31617 11.247 9.32832 11.3439C9.34011 11.4405 9.39578 11.5266 9.47964 11.5767L15.3159 15.0843C14.8781 15.5991 14.5074 16.0453 14.1738 16.4604C14.0478 16.6165 13.9264 16.7695 13.8056 16.9223L9.86737 16.1226C9.76248 16.1009 9.6554 16.1339 9.58028 16.2091L8.89746 16.892C8.75222 17.0376 8.78163 17.2801 8.9569 17.3867L12.0756 19.2815C11.1629 20.6792 11.1516 21.1595 11.4248 21.4326C11.887 21.8948 12.9718 21.1748 13.5755 20.7809L15.471 23.9005C15.5761 24.0739 15.8189 24.1069 15.9657 23.9601L16.6485 23.2771C16.7237 23.2019 16.7562 23.0943 16.7352 22.9901L15.9354 19.0519C16.0883 18.931 16.2412 18.8094 16.3969 18.6843C16.8104 18.3517 17.2566 17.9809 17.7731 17.5417L21.2807 23.3783C21.3879 23.556 21.6319 23.584 21.7764 23.4391L22.905 22.3105C22.9795 22.236 23.0121 22.1292 22.9919 22.0258L22.6234 20.1426L23.6429 19.1229C23.7667 18.9992 23.7667 18.7985 23.6429 18.6749C23.5192 18.5512 23.3186 18.5512 23.1949 18.6749L22.4769 19.3931L22.1577 17.7621C22.1838 17.7479 22.2104 17.7346 22.2325 17.7124L22.9395 17.0052C23.0632 16.8815 23.0632 16.6808 22.9395 16.5572C22.8157 16.4335 22.6152 16.4335 22.4915 16.5572L22.0151 17.0338L21.4571 14.1821C22.6921 12.9678 24.9271 10.3802 23.6876 9.16947C22.475 7.93156 19.8878 10.1688 18.6746 11.4003L18.675 11.4005ZM10.1535 11.2425L10.876 10.5199L18.147 11.9429C17.4458 12.6725 16.5593 13.6417 15.7337 14.5963L10.1535 11.2425ZM9.6309 17.0548L9.90814 16.7774L13.3669 17.4797C13.0647 17.8713 12.7244 18.3311 12.4294 18.7552L9.6309 17.0548ZM16.0804 22.9496L15.8032 23.2268L14.1026 20.4278C14.5332 20.1285 14.9596 19.8137 15.3782 19.4907L16.0804 22.9496ZM22.338 21.9819L21.6155 22.7045L18.2616 17.124C19.1871 16.3234 20.1233 15.4702 20.9152 14.7105L22.338 21.9819ZM15.9999 18.1906C15.2674 18.7819 12.8376 20.7148 11.9216 20.9363C12.1437 20.0235 14.0787 17.5871 14.6676 16.8575C16.0705 15.1125 18.7966 12.0225 20.2431 10.7925C20.4765 11.7652 21.0959 12.3848 22.0642 12.6158C20.7645 14.1438 17.6216 16.887 15.9999 18.1904L15.9999 18.1906ZM22.5144 12.0506C21.491 11.9197 20.9432 11.3716 20.8077 10.3429C21.3725 9.92663 22.7495 9.12688 23.2456 9.62301C23.2532 9.63079 23.8266 10.2704 22.5144 12.0506Z" fill="black"/>
<path d="M18.6267 13.6489C17.8043 14.4674 16.5765 15.7809 15.3811 17.1742C15.2672 17.3071 15.2824 17.5071 15.4151 17.621C15.5475 17.7349 15.7481 17.7198 15.8619 17.587C17.0257 16.2309 18.2129 14.9574 19.0742 14.0974C19.1979 13.9739 19.1983 13.7734 19.0748 13.6494C18.9515 13.5257 18.7509 13.5248 18.6268 13.6488L18.6267 13.6489Z" fill="black"/>
</svg>
